  0
SECTION
  2
HEADER
  9
$ACADVER
  1
AC1009
  9
$FILLMODE
 70
1
  9
$EXTMIN
 10
-6.2037
 20
-1.9814
 30
0.0000
  9
$EXTMAX
 10
32.1918
 20
36.0947
 30
0.0000
  0
ENDSEC
  0
SECTION
  2
TABLES
  0
TABLE
  2
LTYPE
 70
1
  0
LTYPE
  2
CONTINUOUS
 70
64
  3
Solid line
 72
65
 73
0
 40
0
  0
ENDTAB
  0
TABLE
  2
LAYER
 70
255
  0
LAYER
  2
1
 70
64
 62
22
  6
CONTINUOUS
  0
ENDTAB
  0
ENDSEC
  0
SECTION
  2
BLOCKS
  0
BLOCK
  8
0
  2
RECT
 70
64
 10
0.0000
 20
0.0000
 30
0.0000
  3
RECT
  0
SOLID
  8
0
 10
-0.5000
 20
-0.5000
 30
0.0000
 11
0.5000
 21
-0.5000
 31
0.0000
 12
-0.5000
 22
0.5000
 32
0.0000
 13
0.5000
 23
0.5000
 33
0.0000
  0
ENDBLK
  8
0
  0
BLOCK
  8
0
  2
PIE
 70
64
 10
0.0000
 20
0.0000
 30
0.0000
  3
PIE
  0
POLYLINE
  8
0
 66
1
 10
0.0000
 20
0.0000
 30
0.0000
 40
0.5000
 41
0.5000
 70
0
  0
VERTEX
  8
0
 10
0.0000
 20
-0.2500
 30
0.0000
 42
1.0000
  0
VERTEX
  8
0
 10
0.0000
 20
0.2500
 30
0.0000
 42
1.0000
  0
VERTEX
  8
0
 10
0.0000
 20
-0.2500
 30
0.0000
  0
SEQEND
  8
0
  0
ENDBLK
  8
0
  0
BLOCK
  8
0
  2
OCTAGONP
 70
64
 10
0.0000
 20
0.0000
 30
0.0000
  3
OCTAGONP
  0
POLYLINE
  8
0
 66
1
 10
0.0000
 20
0.0000
 30
0.0000
 40
0.5000
 41
0.5000
 70
0
  0
VERTEX
  8
0
 10
-0.2500
 20
-0.1036
 30
0.0000
  0
VERTEX
  8
0
 10
-0.2500
 20
0.1036
 30
0.0000
  0
VERTEX
  8
0
 10
-0.1036
 20
0.2500
 30
0.0000
  0
VERTEX
  8
0
 10
0.1036
 20
0.2500
 30
0.0000
  0
VERTEX
  8
0
 10
0.2500
 20
0.1036
 30
0.0000
  0
VERTEX
  8
0
 10
0.2500
 20
-0.1036
 30
0.0000
  0
VERTEX
  8
0
 10
0.1036
 20
-0.2500
 30
0.0000
  0
VERTEX
  8
0
 10
-0.1036
 20
-0.2500
 30
0.0000
  0
VERTEX
  8
0
 10
-0.2500
 20
-0.1036
 30
0.0000
  0
VERTEX
  8
0
 10
-0.2500
 20
0.1036
 30
0.0000
  0
SEQEND
  8
0
  0
ENDBLK
  8
0
  0
BLOCK
  8
0
  2
SQUAREP
 70
64
 10
0.0000
 20
0.0000
 30
0.0000
  3
SQUAREP
  0
SOLID
  8
0
 10
-0.5000
 20
-0.5000
 30
0.0000
 11
0.5000
 21
-0.5000
 31
0.0000
 12
-0.5000
 22
0.5000
 32
0.0000
 13
0.5000
 23
0.5000
 33
0.0000
  0
ENDBLK
  8
0
  0
BLOCK
  8
0
  2
ROUNDP
 70
64
 10
0.0000
 20
0.0000
 30
0.0000
  3
ROUNDP
  0
POLYLINE
  8
0
 66
1
 10
0.0000
 20
0.0000
 30
0.0000
 40
0.5000
 41
0.5000
 70
0
  0
VERTEX
  8
0
 10
0.0000
 20
-0.2500
 30
0.0000
 42
1.0000
  0
VERTEX
  8
0
 10
0.0000
 20
0.2500
 30
0.0000
 42
1.0000
  0
VERTEX
  8
0
 10
0.0000
 20
-0.2500
 30
0.0000
  0
SEQEND
  8
0
  0
ENDBLK
  8
0
  0
BLOCK
  8
0
  2
ANNULUSP
 70
64
 10
0.0000
 20
0.0000
 30
0.0000
  3
ANNULUSP
  0
POLYLINE
  8
0
 66
1
 10
0.0000
 20
0.0000
 30
0.0000
 40
0.5000
 41
0.5000
 70
0
  0
VERTEX
  8
0
 10
0.0000
 20
-0.2500
 30
0.0000
 42
1.0000
  0
VERTEX
  8
0
 10
0.0000
 20
0.2500
 30
0.0000
 42
1.0000
  0
VERTEX
  8
0
 10
0.0000
 20
-0.2500
 30
0.0000
  0
SEQEND
  8
0
  0
ENDBLK
  8
0
  0
BLOCK
  8
0
  2
THERMALP
 70
64
 10
0.0000
 20
0.0000
 30
0.0000
  3
THERMALP
  0
POLYLINE
  8
0
 66
1
 10
0.0000
 20
0.0000
 30
0.0000
 40
0.1000
 41
0.1000
 70
0
  0
VERTEX
  8
0
 10
-0.2379
 20
0.4500
 30
0.0000
  0
VERTEX
  8
0
 10
0.2379
 20
0.4500
 30
0.0000
  0
SEQEND
  8
0
  0
POLYLINE
  8
0
 66
1
 10
0.0000
 20
0.0000
 30
0.0000
 40
0.0500
 41
0.0500
 70
0
  0
VERTEX
  8
0
 10
0.2379
 20
0.4250
 30
0.0000
 42
1.0000
  0
VERTEX
  8
0
 10
0.2379
 20
0.4750
 30
0.0000
  0
SEQEND
  8
0
  0
POLYLINE
  8
0
 66
1
 10
0.0000
 20
0.0000
 30
0.0000
 40
0.0500
 41
0.0500
 70
0
  0
VERTEX
  8
0
 10
-0.2379
 20
0.4750
 30
0.0000
 42
1.0000
  0
VERTEX
  8
0
 10
-0.2379
 20
0.4250
 30
0.0000
  0
SEQEND
  8
0
  0
POLYLINE
  8
0
 66
1
 10
0.0000
 20
0.0000
 30
0.0000
 40
0.1000
 41
0.1000
 70
0
  0
VERTEX
  8
0
 10
0.4500
 20
0.2379
 30
0.0000
  0
VERTEX
  8
0
 10
0.4500
 20
-0.2379
 30
0.0000
  0
SEQEND
  8
0
  0
POLYLINE
  8
0
 66
1
 10
0.0000
 20
0.0000
 30
0.0000
 40
0.0500
 41
0.0500
 70
0
  0
VERTEX
  8
0
 10
0.4250
 20
-0.2379
 30
0.0000
 42
1.0000
  0
VERTEX
  8
0
 10
0.4750
 20
-0.2379
 30
0.0000
  0
SEQEND
  8
0
  0
POLYLINE
  8
0
 66
1
 10
0.0000
 20
0.0000
 30
0.0000
 40
0.0500
 41
0.0500
 70
0
  0
VERTEX
  8
0
 10
0.4750
 20
0.2379
 30
0.0000
 42
1.0000
  0
VERTEX
  8
0
 10
0.4250
 20
0.2379
 30
0.0000
  0
SEQEND
  8
0
  0
POLYLINE
  8
0
 66
1
 10
0.0000
 20
0.0000
 30
0.0000
 40
0.1000
 41
0.1000
 70
0
  0
VERTEX
  8
0
 10
0.2379
 20
-0.4500
 30
0.0000
  0
VERTEX
  8
0
 10
-0.2379
 20
-0.4500
 30
0.0000
  0
SEQEND
  8
0
  0
POLYLINE
  8
0
 66
1
 10
0.0000
 20
0.0000
 30
0.0000
 40
0.0500
 41
0.0500
 70
0
  0
VERTEX
  8
0
 10
-0.2379
 20
-0.4250
 30
0.0000
 42
1.0000
  0
VERTEX
  8
0
 10
-0.2379
 20
-0.4750
 30
0.0000
  0
SEQEND
  8
0
  0
POLYLINE
  8
0
 66
1
 10
0.0000
 20
0.0000
 30
0.0000
 40
0.0500
 41
0.0500
 70
0
  0
VERTEX
  8
0
 10
0.2379
 20
-0.4750
 30
0.0000
 42
1.0000
  0
VERTEX
  8
0
 10
0.2379
 20
-0.4250
 30
0.0000
  0
SEQEND
  8
0
  0
POLYLINE
  8
0
 66
1
 10
0.0000
 20
0.0000
 30
0.0000
 40
0.1000
 41
0.1000
 70
0
  0
VERTEX
  8
0
 10
-0.4500
 20
-0.2379
 30
0.0000
  0
VERTEX
  8
0
 10
-0.4500
 20
0.2379
 30
0.0000
  0
SEQEND
  8
0
  0
POLYLINE
  8
0
 66
1
 10
0.0000
 20
0.0000
 30
0.0000
 40
0.0500
 41
0.0500
 70
0
  0
VERTEX
  8
0
 10
-0.4250
 20
0.2379
 30
0.0000
 42
1.0000
  0
VERTEX
  8
0
 10
-0.4750
 20
0.2379
 30
0.0000
  0
SEQEND
  8
0
  0
POLYLINE
  8
0
 66
1
 10
0.0000
 20
0.0000
 30
0.0000
 40
0.0500
 41
0.0500
 70
0
  0
VERTEX
  8
0
 10
-0.4750
 20
-0.2379
 30
0.0000
 42
1.0000
  0
VERTEX
  8
0
 10
-0.4250
 20
-0.2379
 30
0.0000
  0
SEQEND
  8
0
  0
ENDBLK
  8
0
  0
BLOCK
  8
0
  2
OCTAGONV
 70
64
 10
0.0000
 20
0.0000
 30
0.0000
  3
OCTAGONV
  0
POLYLINE
  8
0
 66
1
 10
0.0000
 20
0.0000
 30
0.0000
 40
0.5000
 41
0.5000
 70
0
  0
VERTEX
  8
0
 10
-0.2500
 20
-0.1036
 30
0.0000
  0
VERTEX
  8
0
 10
-0.2500
 20
0.1036
 30
0.0000
  0
VERTEX
  8
0
 10
-0.1036
 20
0.2500
 30
0.0000
  0
VERTEX
  8
0
 10
0.1036
 20
0.2500
 30
0.0000
  0
VERTEX
  8
0
 10
0.2500
 20
0.1036
 30
0.0000
  0
VERTEX
  8
0
 10
0.2500
 20
-0.1036
 30
0.0000
  0
VERTEX
  8
0
 10
0.1036
 20
-0.2500
 30
0.0000
  0
VERTEX
  8
0
 10
-0.1036
 20
-0.2500
 30
0.0000
  0
VERTEX
  8
0
 10
-0.2500
 20
-0.1036
 30
0.0000
  0
VERTEX
  8
0
 10
-0.2500
 20
0.1036
 30
0.0000
  0
SEQEND
  8
0
  0
ENDBLK
  8
0
  0
BLOCK
  8
0
  2
SQUAREV
 70
64
 10
0.0000
 20
0.0000
 30
0.0000
  3
SQUAREV
  0
SOLID
  8
0
 10
-0.5000
 20
-0.5000
 30
0.0000
 11
0.5000
 21
-0.5000
 31
0.0000
 12
-0.5000
 22
0.5000
 32
0.0000
 13
0.5000
 23
0.5000
 33
0.0000
  0
ENDBLK
  8
0
  0
BLOCK
  8
0
  2
ROUNDV
 70
64
 10
0.0000
 20
0.0000
 30
0.0000
  3
ROUNDV
  0
POLYLINE
  8
0
 66
1
 10
0.0000
 20
0.0000
 30
0.0000
 40
0.5000
 41
0.5000
 70
0
  0
VERTEX
  8
0
 10
0.0000
 20
-0.2500
 30
0.0000
 42
1.0000
  0
VERTEX
  8
0
 10
0.0000
 20
0.2500
 30
0.0000
 42
1.0000
  0
VERTEX
  8
0
 10
0.0000
 20
-0.2500
 30
0.0000
  0
SEQEND
  8
0
  0
ENDBLK
  8
0
  0
BLOCK
  8
0
  2
ANNULUSV
 70
64
 10
0.0000
 20
0.0000
 30
0.0000
  3
ANNULUSV
  0
POLYLINE
  8
0
 66
1
 10
0.0000
 20
0.0000
 30
0.0000
 40
0.5000
 41
0.5000
 70
0
  0
VERTEX
  8
0
 10
0.0000
 20
-0.2500
 30
0.0000
 42
1.0000
  0
VERTEX
  8
0
 10
0.0000
 20
0.2500
 30
0.0000
 42
1.0000
  0
VERTEX
  8
0
 10
0.0000
 20
-0.2500
 30
0.0000
  0
SEQEND
  8
0
  0
ENDBLK
  8
0
  0
BLOCK
  8
0
  2
THERMALV
 70
64
 10
0.0000
 20
0.0000
 30
0.0000
  3
THERMALV
  0
POLYLINE
  8
0
 66
1
 10
0.0000
 20
0.0000
 30
0.0000
 40
0.1000
 41
0.1000
 70
0
  0
VERTEX
  8
0
 10
-0.2379
 20
0.4500
 30
0.0000
  0
VERTEX
  8
0
 10
0.2379
 20
0.4500
 30
0.0000
  0
SEQEND
  8
0
  0
POLYLINE
  8
0
 66
1
 10
0.0000
 20
0.0000
 30
0.0000
 40
0.0500
 41
0.0500
 70
0
  0
VERTEX
  8
0
 10
0.2379
 20
0.4250
 30
0.0000
 42
1.0000
  0
VERTEX
  8
0
 10
0.2379
 20
0.4750
 30
0.0000
  0
SEQEND
  8
0
  0
POLYLINE
  8
0
 66
1
 10
0.0000
 20
0.0000
 30
0.0000
 40
0.0500
 41
0.0500
 70
0
  0
VERTEX
  8
0
 10
-0.2379
 20
0.4750
 30
0.0000
 42
1.0000
  0
VERTEX
  8
0
 10
-0.2379
 20
0.4250
 30
0.0000
  0
SEQEND
  8
0
  0
POLYLINE
  8
0
 66
1
 10
0.0000
 20
0.0000
 30
0.0000
 40
0.1000
 41
0.1000
 70
0
  0
VERTEX
  8
0
 10
0.4500
 20
0.2379
 30
0.0000
  0
VERTEX
  8
0
 10
0.4500
 20
-0.2379
 30
0.0000
  0
SEQEND
  8
0
  0
POLYLINE
  8
0
 66
1
 10
0.0000
 20
0.0000
 30
0.0000
 40
0.0500
 41
0.0500
 70
0
  0
VERTEX
  8
0
 10
0.4250
 20
-0.2379
 30
0.0000
 42
1.0000
  0
VERTEX
  8
0
 10
0.4750
 20
-0.2379
 30
0.0000
  0
SEQEND
  8
0
  0
POLYLINE
  8
0
 66
1
 10
0.0000
 20
0.0000
 30
0.0000
 40
0.0500
 41
0.0500
 70
0
  0
VERTEX
  8
0
 10
0.4750
 20
0.2379
 30
0.0000
 42
1.0000
  0
VERTEX
  8
0
 10
0.4250
 20
0.2379
 30
0.0000
  0
SEQEND
  8
0
  0
POLYLINE
  8
0
 66
1
 10
0.0000
 20
0.0000
 30
0.0000
 40
0.1000
 41
0.1000
 70
0
  0
VERTEX
  8
0
 10
0.2379
 20
-0.4500
 30
0.0000
  0
VERTEX
  8
0
 10
-0.2379
 20
-0.4500
 30
0.0000
  0
SEQEND
  8
0
  0
POLYLINE
  8
0
 66
1
 10
0.0000
 20
0.0000
 30
0.0000
 40
0.0500
 41
0.0500
 70
0
  0
VERTEX
  8
0
 10
-0.2379
 20
-0.4250
 30
0.0000
 42
1.0000
  0
VERTEX
  8
0
 10
-0.2379
 20
-0.4750
 30
0.0000
  0
SEQEND
  8
0
  0
POLYLINE
  8
0
 66
1
 10
0.0000
 20
0.0000
 30
0.0000
 40
0.0500
 41
0.0500
 70
0
  0
VERTEX
  8
0
 10
0.2379
 20
-0.4750
 30
0.0000
 42
1.0000
  0
VERTEX
  8
0
 10
0.2379
 20
-0.4250
 30
0.0000
  0
SEQEND
  8
0
  0
POLYLINE
  8
0
 66
1
 10
0.0000
 20
0.0000
 30
0.0000
 40
0.1000
 41
0.1000
 70
0
  0
VERTEX
  8
0
 10
-0.4500
 20
-0.2379
 30
0.0000
  0
VERTEX
  8
0
 10
-0.4500
 20
0.2379
 30
0.0000
  0
SEQEND
  8
0
  0
POLYLINE
  8
0
 66
1
 10
0.0000
 20
0.0000
 30
0.0000
 40
0.0500
 41
0.0500
 70
0
  0
VERTEX
  8
0
 10
-0.4250
 20
0.2379
 30
0.0000
 42
1.0000
  0
VERTEX
  8
0
 10
-0.4750
 20
0.2379
 30
0.0000
  0
SEQEND
  8
0
  0
POLYLINE
  8
0
 66
1
 10
0.0000
 20
0.0000
 30
0.0000
 40
0.0500
 41
0.0500
 70
0
  0
VERTEX
  8
0
 10
-0.4750
 20
-0.2379
 30
0.0000
 42
1.0000
  0
VERTEX
  8
0
 10
-0.4250
 20
-0.2379
 30
0.0000
  0
SEQEND
  8
0
  0
ENDBLK
  8
0
  0
ENDSEC
  0
SECTION
  2
ENTITIES
  0
INSERT
  8
1
  2
RECT
 10
17.8330
 20
16.6360
 30
0.0000
 41
2.0000
 42
1.8000
 43
1.0000
 50
90.0000
  0
INSERT
  8
1
  2
RECT
 10
17.8330
 20
19.6360
 30
0.0000
 41
2.0000
 42
1.8000
 43
1.0000
 50
90.0000
  0
INSERT
  8
1
  2
RECT
 10
20.1730
 20
16.7070
 30
0.0000
 41
1.8000
 42
1.8000
 43
1.0000
 50
90.0000
  0
INSERT
  8
1
  2
RECT
 10
20.1730
 20
19.4690
 30
0.0000
 41
1.8000
 42
1.8000
 43
1.0000
 50
90.0000
  0
INSERT
  8
1
  2
RECT
 10
17.6498
 20
4.1288
 30
0.0000
 41
1.0000
 42
3.0000
 43
1.0000
 50
0.0000
  0
INSERT
  8
1
  2
RECT
 10
20.6210
 20
4.1160
 30
0.0000
 41
1.0000
 42
3.0000
 43
1.0000
 50
0.0000
  0
INSERT
  8
1
  2
RECT
 10
19.1416
 20
4.1228
 30
0.0000
 41
1.0000
 42
3.0000
 43
1.0000
 50
0.0000
  0
INSERT
  8
1
  2
RECT
 10
16.1596
 20
4.1328
 30
0.0000
 41
1.0000
 42
3.0000
 43
1.0000
 50
180.0000
  0
INSERT
  8
1
  2
RECT
 10
17.7220
 20
10.2365
 30
0.0000
 41
1.2000
 42
0.3000
 43
1.0000
 50
90.0000
  0
INSERT
  8
1
  2
RECT
 10
18.2220
 20
10.2365
 30
0.0000
 41
1.2000
 42
0.3000
 43
1.0000
 50
90.0000
  0
INSERT
  8
1
  2
RECT
 10
18.7220
 20
10.2365
 30
0.0000
 41
1.2000
 42
0.3000
 43
1.0000
 50
90.0000
  0
INSERT
  8
1
  2
RECT
 10
19.2220
 20
10.2365
 30
0.0000
 41
1.2000
 42
0.3000
 43
1.0000
 50
90.0000
  0
INSERT
  8
1
  2
RECT
 10
20.1140
 20
11.1543
 30
0.0000
 41
1.2000
 42
0.3000
 43
1.0000
 50
0.0000
  0
INSERT
  8
1
  2
RECT
 10
20.1140
 20
11.6543
 30
0.0000
 41
1.2000
 42
0.3000
 43
1.0000
 50
0.0000
  0
INSERT
  8
1
  2
RECT
 10
20.1140
 20
12.1543
 30
0.0000
 41
1.2000
 42
0.3000
 43
1.0000
 50
0.0000
  0
INSERT
  8
1
  2
RECT
 10
20.1140
 20
12.6543
 30
0.0000
 41
1.2000
 42
0.3000
 43
1.0000
 50
0.0000
  0
INSERT
  8
1
  2
RECT
 10
19.2249
 20
13.5446
 30
0.0000
 41
1.2000
 42
0.3000
 43
1.0000
 50
270.0000
  0
INSERT
  8
1
  2
RECT
 10
18.7249
 20
13.5446
 30
0.0000
 41
1.2000
 42
0.3000
 43
1.0000
 50
270.0000
  0
INSERT
  8
1
  2
RECT
 10
18.2249
 20
13.5446
 30
0.0000
 41
1.2000
 42
0.3000
 43
1.0000
 50
270.0000
  0
INSERT
  8
1
  2
RECT
 10
17.7249
 20
13.5446
 30
0.0000
 41
1.2000
 42
0.3000
 43
1.0000
 50
270.0000
  0
INSERT
  8
1
  2
RECT
 10
16.7956
 20
12.6500
 30
0.0000
 41
1.2000
 42
0.3000
 43
1.0000
 50
180.0000
  0
INSERT
  8
1
  2
RECT
 10
16.7956
 20
12.1500
 30
0.0000
 41
1.2000
 42
0.3000
 43
1.0000
 50
180.0000
  0
INSERT
  8
1
  2
RECT
 10
16.7956
 20
11.6500
 30
0.0000
 41
1.2000
 42
0.3000
 43
1.0000
 50
180.0000
  0
INSERT
  8
1
  2
RECT
 10
16.7956
 20
11.1500
 30
0.0000
 41
1.2000
 42
0.3000
 43
1.0000
 50
180.0000
  0
POLYLINE
  8
1
 66
1
 10
0.0000
 20
0.0000
 30
0.0000
 40
0.2540
 41
0.2540
 70
0
  0
VERTEX
  8
1
 10
19.8720
 20
13.2385
 30
0.0000
  0
VERTEX
  8
1
 10
19.8696
 20
13.2361
 30
0.0000
  0
SEQEND
  8
0
  0
POLYLINE
  8
1
 66
1
 10
0.0000
 20
0.0000
 30
0.0000
 40
0.1270
 41
0.1270
 70
0
  0
VERTEX
  8
1
 10
19.8247
 20
13.2810
 30
0.0000
 42
1.0000
  0
VERTEX
  8
1
 10
19.9145
 20
13.1912
 30
0.0000
  0
SEQEND
  8
0
  0
POLYLINE
  8
1
 66
1
 10
0.0000
 20
0.0000
 30
0.0000
 40
0.1270
 41
0.1270
 70
0
  0
VERTEX
  8
1
 10
19.9169
 20
13.1936
 30
0.0000
 42
1.0000
  0
VERTEX
  8
1
 10
19.8271
 20
13.2834
 30
0.0000
  0
SEQEND
  8
0
  0
POLYLINE
  8
1
 66
1
 10
0.0000
 20
0.0000
 30
0.0000
 40
0.2540
 41
0.2540
 70
0
  0
VERTEX
  8
1
 10
19.8696
 20
13.2361
 30
0.0000
  0
VERTEX
  8
1
 10
19.3352
 20
13.2361
 30
0.0000
  0
SEQEND
  8
0
  0
POLYLINE
  8
1
 66
1
 10
0.0000
 20
0.0000
 30
0.0000
 40
0.1270
 41
0.1270
 70
0
  0
VERTEX
  8
1
 10
19.3352
 20
13.2996
 30
0.0000
 42
1.0000
  0
VERTEX
  8
1
 10
19.3352
 20
13.1726
 30
0.0000
  0
SEQEND
  8
0
  0
POLYLINE
  8
1
 66
1
 10
0.0000
 20
0.0000
 30
0.0000
 40
0.1270
 41
0.1270
 70
0
  0
VERTEX
  8
1
 10
19.8696
 20
13.1726
 30
0.0000
 42
1.0000
  0
VERTEX
  8
1
 10
19.8696
 20
13.2996
 30
0.0000
  0
SEQEND
  8
0
  0
POLYLINE
  8
1
 66
1
 10
0.0000
 20
0.0000
 30
0.0000
 40
0.2540
 41
0.2540
 70
0
  0
VERTEX
  8
1
 10
19.3352
 20
13.2361
 30
0.0000
  0
VERTEX
  8
1
 10
19.3067
 20
13.2077
 30
0.0000
  0
SEQEND
  8
0
  0
POLYLINE
  8
1
 66
1
 10
0.0000
 20
0.0000
 30
0.0000
 40
0.1270
 41
0.1270
 70
0
  0
VERTEX
  8
1
 10
19.2618
 20
13.2526
 30
0.0000
 42
1.0000
  0
VERTEX
  8
1
 10
19.3516
 20
13.1628
 30
0.0000
  0
SEQEND
  8
0
  0
POLYLINE
  8
1
 66
1
 10
0.0000
 20
0.0000
 30
0.0000
 40
0.1270
 41
0.1270
 70
0
  0
VERTEX
  8
1
 10
19.3801
 20
13.1912
 30
0.0000
 42
1.0000
  0
VERTEX
  8
1
 10
19.2903
 20
13.2810
 30
0.0000
  0
SEQEND
  8
0
  0
POLYLINE
  8
1
 66
1
 10
0.0000
 20
0.0000
 30
0.0000
 40
0.2540
 41
0.2540
 70
0
  0
VERTEX
  8
1
 10
19.3067
 20
13.2077
 30
0.0000
  0
VERTEX
  8
1
 10
19.3067
 20
13.3002
 30
0.0000
  0
SEQEND
  8
0
  0
POLYLINE
  8
1
 66
1
 10
0.0000
 20
0.0000
 30
0.0000
 40
0.1270
 41
0.1270
 70
0
  0
VERTEX
  8
1
 10
19.3702
 20
13.3002
 30
0.0000
 42
1.0000
  0
VERTEX
  8
1
 10
19.2432
 20
13.3002
 30
0.0000
  0
SEQEND
  8
0
  0
POLYLINE
  8
1
 66
1
 10
0.0000
 20
0.0000
 30
0.0000
 40
0.1270
 41
0.1270
 70
0
  0
VERTEX
  8
1
 10
19.2432
 20
13.2077
 30
0.0000
 42
1.0000
  0
VERTEX
  8
1
 10
19.3702
 20
13.2077
 30
0.0000
  0
SEQEND
  8
0
  0
POLYLINE
  8
1
 66
1
 10
0.0000
 20
0.0000
 30
0.0000
 40
0.2540
 41
0.2540
 70
0
  0
VERTEX
  8
1
 10
19.3067
 20
13.3002
 30
0.0000
  0
VERTEX
  8
1
 10
19.3091
 20
13.3026
 30
0.0000
  0
SEQEND
  8
0
  0
POLYLINE
  8
1
 66
1
 10
0.0000
 20
0.0000
 30
0.0000
 40
0.1270
 41
0.1270
 70
0
  0
VERTEX
  8
1
 10
19.3540
 20
13.2577
 30
0.0000
 42
1.0000
  0
VERTEX
  8
1
 10
19.2642
 20
13.3475
 30
0.0000
  0
SEQEND
  8
0
  0
POLYLINE
  8
1
 66
1
 10
0.0000
 20
0.0000
 30
0.0000
 40
0.1270
 41
0.1270
 70
0
  0
VERTEX
  8
1
 10
19.2618
 20
13.3451
 30
0.0000
 42
1.0000
  0
VERTEX
  8
1
 10
19.3516
 20
13.2553
 30
0.0000
  0
SEQEND
  8
0
  0
POLYLINE
  8
1
 66
1
 10
0.0000
 20
0.0000
 30
0.0000
 40
0.2540
 41
0.2540
 70
0
  0
VERTEX
  8
1
 10
19.3091
 20
13.3026
 30
0.0000
  0
VERTEX
  8
1
 10
19.3091
 20
13.7866
 30
0.0000
  0
SEQEND
  8
0
  0
POLYLINE
  8
1
 66
1
 10
0.0000
 20
0.0000
 30
0.0000
 40
0.1270
 41
0.1270
 70
0
  0
VERTEX
  8
1
 10
19.3726
 20
13.7866
 30
0.0000
 42
1.0000
  0
VERTEX
  8
1
 10
19.2456
 20
13.7866
 30
0.0000
  0
SEQEND
  8
0
  0
POLYLINE
  8
1
 66
1
 10
0.0000
 20
0.0000
 30
0.0000
 40
0.1270
 41
0.1270
 70
0
  0
VERTEX
  8
1
 10
19.2456
 20
13.3026
 30
0.0000
 42
1.0000
  0
VERTEX
  8
1
 10
19.3726
 20
13.3026
 30
0.0000
  0
SEQEND
  8
0
  0
POLYLINE
  8
1
 66
1
 10
0.0000
 20
0.0000
 30
0.0000
 40
0.2540
 41
0.2540
 70
0
  0
VERTEX
  8
1
 10
19.3091
 20
13.7866
 30
0.0000
  0
VERTEX
  8
1
 10
19.3067
 20
13.7890
 30
0.0000
  0
SEQEND
  8
0
  0
POLYLINE
  8
1
 66
1
 10
0.0000
 20
0.0000
 30
0.0000
 40
0.1270
 41
0.1270
 70
0
  0
VERTEX
  8
1
 10
19.3516
 20
13.8339
 30
0.0000
 42
1.0000
  0
VERTEX
  8
1
 10
19.2618
 20
13.7441
 30
0.0000
  0
SEQEND
  8
0
  0
POLYLINE
  8
1
 66
1
 10
0.0000
 20
0.0000
 30
0.0000
 40
0.1270
 41
0.1270
 70
0
  0
VERTEX
  8
1
 10
19.2642
 20
13.7417
 30
0.0000
 42
1.0000
  0
VERTEX
  8
1
 10
19.3540
 20
13.8315
 30
0.0000
  0
SEQEND
  8
0
  0
POLYLINE
  8
1
 66
1
 10
0.0000
 20
0.0000
 30
0.0000
 40
0.2540
 41
0.2540
 70
0
  0
VERTEX
  8
1
 10
19.3067
 20
13.7890
 30
0.0000
  0
VERTEX
  8
1
 10
19.3067
 20
14.3235
 30
0.0000
  0
SEQEND
  8
0
  0
POLYLINE
  8
1
 66
1
 10
0.0000
 20
0.0000
 30
0.0000
 40
0.1270
 41
0.1270
 70
0
  0
VERTEX
  8
1
 10
19.3702
 20
14.3235
 30
0.0000
 42
1.0000
  0
VERTEX
  8
1
 10
19.2432
 20
14.3235
 30
0.0000
  0
SEQEND
  8
0
  0
POLYLINE
  8
1
 66
1
 10
0.0000
 20
0.0000
 30
0.0000
 40
0.1270
 41
0.1270
 70
0
  0
VERTEX
  8
1
 10
19.2432
 20
13.7890
 30
0.0000
 42
1.0000
  0
VERTEX
  8
1
 10
19.3702
 20
13.7890
 30
0.0000
  0
SEQEND
  8
0
  0
POLYLINE
  8
1
 66
1
 10
0.0000
 20
0.0000
 30
0.0000
 40
0.2540
 41
0.2540
 70
0
  0
VERTEX
  8
1
 10
19.3067
 20
14.3235
 30
0.0000
  0
VERTEX
  8
1
 10
19.3040
 20
14.3262
 30
0.0000
  0
SEQEND
  8
0
  0
POLYLINE
  8
1
 66
1
 10
0.0000
 20
0.0000
 30
0.0000
 40
0.1270
 41
0.1270
 70
0
  0
VERTEX
  8
1
 10
19.3489
 20
14.3711
 30
0.0000
 42
1.0000
  0
VERTEX
  8
1
 10
19.2591
 20
14.2813
 30
0.0000
  0
SEQEND
  8
0
  0
POLYLINE
  8
1
 66
1
 10
0.0000
 20
0.0000
 30
0.0000
 40
0.1270
 41
0.1270
 70
0
  0
VERTEX
  8
1
 10
19.2619
 20
14.2785
 30
0.0000
 42
1.0000
  0
VERTEX
  8
1
 10
19.3516
 20
14.3684
 30
0.0000
  0
SEQEND
  8
0
  0
POLYLINE
  8
1
 66
1
 10
0.0000
 20
0.0000
 30
0.0000
 40
0.2540
 41
0.2540
 70
0
  0
VERTEX
  8
1
 10
19.3040
 20
14.3262
 30
0.0000
  0
VERTEX
  8
1
 10
19.3040
 20
15.3752
 30
0.0000
  0
SEQEND
  8
0
  0
POLYLINE
  8
1
 66
1
 10
0.0000
 20
0.0000
 30
0.0000
 40
0.1270
 41
0.1270
 70
0
  0
VERTEX
  8
1
 10
19.3675
 20
15.3752
 30
0.0000
 42
1.0000
  0
VERTEX
  8
1
 10
19.2405
 20
15.3752
 30
0.0000
  0
SEQEND
  8
0
  0
POLYLINE
  8
1
 66
1
 10
0.0000
 20
0.0000
 30
0.0000
 40
0.1270
 41
0.1270
 70
0
  0
VERTEX
  8
1
 10
19.2405
 20
14.3262
 30
0.0000
 42
1.0000
  0
VERTEX
  8
1
 10
19.3675
 20
14.3262
 30
0.0000
  0
SEQEND
  8
0
  0
POLYLINE
  8
1
 66
1
 10
0.0000
 20
0.0000
 30
0.0000
 40
0.2540
 41
0.2540
 70
0
  0
VERTEX
  8
1
 10
19.3040
 20
15.3752
 30
0.0000
  0
VERTEX
  8
1
 10
20.0788
 20
15.3752
 30
0.0000
  0
SEQEND
  8
0
  0
POLYLINE
  8
1
 66
1
 10
0.0000
 20
0.0000
 30
0.0000
 40
0.1270
 41
0.1270
 70
0
  0
VERTEX
  8
1
 10
20.0788
 20
15.3117
 30
0.0000
 42
1.0000
  0
VERTEX
  8
1
 10
20.0788
 20
15.4387
 30
0.0000
  0
SEQEND
  8
0
  0
POLYLINE
  8
1
 66
1
 10
0.0000
 20
0.0000
 30
0.0000
 40
0.1270
 41
0.1270
 70
0
  0
VERTEX
  8
1
 10
19.3040
 20
15.4387
 30
0.0000
 42
1.0000
  0
VERTEX
  8
1
 10
19.3040
 20
15.3117
 30
0.0000
  0
SEQEND
  8
0
  0
POLYLINE
  8
1
 66
1
 10
0.0000
 20
0.0000
 30
0.0000
 40
0.2540
 41
0.2540
 70
0
  0
VERTEX
  8
1
 10
20.0788
 20
15.3752
 30
0.0000
  0
VERTEX
  8
1
 10
20.0788
 20
14.4860
 30
0.0000
  0
SEQEND
  8
0
  0
POLYLINE
  8
1
 66
1
 10
0.0000
 20
0.0000
 30
0.0000
 40
0.1270
 41
0.1270
 70
0
  0
VERTEX
  8
1
 10
20.0153
 20
14.4860
 30
0.0000
 42
1.0000
  0
VERTEX
  8
1
 10
20.1423
 20
14.4860
 30
0.0000
  0
SEQEND
  8
0
  0
POLYLINE
  8
1
 66
1
 10
0.0000
 20
0.0000
 30
0.0000
 40
0.1270
 41
0.1270
 70
0
  0
VERTEX
  8
1
 10
20.1423
 20
15.3752
 30
0.0000
 42
1.0000
  0
VERTEX
  8
1
 10
20.0153
 20
15.3752
 30
0.0000
  0
SEQEND
  8
0
  0
POLYLINE
  8
1
 66
1
 10
0.0000
 20
0.0000
 30
0.0000
 40
0.2540
 41
0.2540
 70
0
  0
VERTEX
  8
1
 10
20.0788
 20
14.4860
 30
0.0000
  0
VERTEX
  8
1
 10
20.3788
 20
14.1860
 30
0.0000
  0
SEQEND
  8
0
  0
POLYLINE
  8
1
 66
1
 10
0.0000
 20
0.0000
 30
0.0000
 40
0.1270
 41
0.1270
 70
0
  0
VERTEX
  8
1
 10
20.3339
 20
14.1411
 30
0.0000
 42
1.0000
  0
VERTEX
  8
1
 10
20.4237
 20
14.2309
 30
0.0000
  0
SEQEND
  8
0
  0
POLYLINE
  8
1
 66
1
 10
0.0000
 20
0.0000
 30
0.0000
 40
0.1270
 41
0.1270
 70
0
  0
VERTEX
  8
1
 10
20.1237
 20
14.5309
 30
0.0000
 42
1.0000
  0
VERTEX
  8
1
 10
20.0339
 20
14.4411
 30
0.0000
  0
SEQEND
  8
0
  0
POLYLINE
  8
1
 66
1
 10
0.0000
 20
0.0000
 30
0.0000
 40
0.2540
 41
0.2540
 70
0
  0
VERTEX
  8
1
 10
20.3788
 20
14.1860
 30
0.0000
  0
VERTEX
  8
1
 10
20.3788
 20
13.2385
 30
0.0000
  0
SEQEND
  8
0
  0
POLYLINE
  8
1
 66
1
 10
0.0000
 20
0.0000
 30
0.0000
 40
0.1270
 41
0.1270
 70
0
  0
VERTEX
  8
1
 10
20.3153
 20
13.2385
 30
0.0000
 42
1.0000
  0
VERTEX
  8
1
 10
20.4423
 20
13.2385
 30
0.0000
  0
SEQEND
  8
0
  0
POLYLINE
  8
1
 66
1
 10
0.0000
 20
0.0000
 30
0.0000
 40
0.1270
 41
0.1270
 70
0
  0
VERTEX
  8
1
 10
20.4423
 20
14.1860
 30
0.0000
 42
1.0000
  0
VERTEX
  8
1
 10
20.3153
 20
14.1860
 30
0.0000
  0
SEQEND
  8
0
  0
POLYLINE
  8
1
 66
1
 10
0.0000
 20
0.0000
 30
0.0000
 40
0.2540
 41
0.2540
 70
0
  0
VERTEX
  8
1
 10
20.3788
 20
13.2385
 30
0.0000
  0
VERTEX
  8
1
 10
19.8720
 20
13.2385
 30
0.0000
  0
SEQEND
  8
0
  0
POLYLINE
  8
1
 66
1
 10
0.0000
 20
0.0000
 30
0.0000
 40
0.1270
 41
0.1270
 70
0
  0
VERTEX
  8
1
 10
19.8720
 20
13.3020
 30
0.0000
 42
1.0000
  0
VERTEX
  8
1
 10
19.8720
 20
13.1750
 30
0.0000
  0
SEQEND
  8
0
  0
POLYLINE
  8
1
 66
1
 10
0.0000
 20
0.0000
 30
0.0000
 40
0.1270
 41
0.1270
 70
0
  0
VERTEX
  8
1
 10
20.3788
 20
13.1750
 30
0.0000
 42
1.0000
  0
VERTEX
  8
1
 10
20.3788
 20
13.3020
 30
0.0000
  0
SEQEND
  8
0
  0
POLYLINE
  8
1
 66
1
 10
0.0000
 20
0.0000
 30
0.0000
 40
0.2540
 41
0.2540
 70
0
  0
VERTEX
  8
1
 10
16.5472
 20
15.4111
 30
0.0000
  0
VERTEX
  8
1
 10
16.7541
 20
15.2042
 30
0.0000
  0
SEQEND
  8
0
  0
POLYLINE
  8
1
 66
1
 10
0.0000
 20
0.0000
 30
0.0000
 40
0.1270
 41
0.1270
 70
0
  0
VERTEX
  8
1
 10
16.7092
 20
15.1593
 30
0.0000
 42
1.0000
  0
VERTEX
  8
1
 10
16.7990
 20
15.2491
 30
0.0000
  0
SEQEND
  8
0
  0
POLYLINE
  8
1
 66
1
 10
0.0000
 20
0.0000
 30
0.0000
 40
0.1270
 41
0.1270
 70
0
  0
VERTEX
  8
1
 10
16.5921
 20
15.4560
 30
0.0000
 42
1.0000
  0
VERTEX
  8
1
 10
16.5023
 20
15.3662
 30
0.0000
  0
SEQEND
  8
0
  0
POLYLINE
  8
1
 66
1
 10
0.0000
 20
0.0000
 30
0.0000
 40
0.2540
 41
0.2540
 70
0
  0
VERTEX
  8
1
 10
16.7541
 20
15.2042
 30
0.0000
  0
VERTEX
  8
1
 10
18.1356
 20
15.2042
 30
0.0000
  0
SEQEND
  8
0
  0
POLYLINE
  8
1
 66
1
 10
0.0000
 20
0.0000
 30
0.0000
 40
0.1270
 41
0.1270
 70
0
  0
VERTEX
  8
1
 10
18.1356
 20
15.1407
 30
0.0000
 42
1.0000
  0
VERTEX
  8
1
 10
18.1356
 20
15.2677
 30
0.0000
  0
SEQEND
  8
0
  0
POLYLINE
  8
1
 66
1
 10
0.0000
 20
0.0000
 30
0.0000
 40
0.1270
 41
0.1270
 70
0
  0
VERTEX
  8
1
 10
16.7541
 20
15.2677
 30
0.0000
 42
1.0000
  0
VERTEX
  8
1
 10
16.7541
 20
15.1407
 30
0.0000
  0
SEQEND
  8
0
  0
POLYLINE
  8
1
 66
1
 10
0.0000
 20
0.0000
 30
0.0000
 40
0.2540
 41
0.2540
 70
0
  0
VERTEX
  8
1
 10
18.1356
 20
15.2042
 30
0.0000
  0
VERTEX
  8
1
 10
18.1356
 20
14.4946
 30
0.0000
  0
SEQEND
  8
0
  0
POLYLINE
  8
1
 66
1
 10
0.0000
 20
0.0000
 30
0.0000
 40
0.1270
 41
0.1270
 70
0
  0
VERTEX
  8
1
 10
18.0721
 20
14.4946
 30
0.0000
 42
1.0000
  0
VERTEX
  8
1
 10
18.1991
 20
14.4946
 30
0.0000
  0
SEQEND
  8
0
  0
POLYLINE
  8
1
 66
1
 10
0.0000
 20
0.0000
 30
0.0000
 40
0.1270
 41
0.1270
 70
0
  0
VERTEX
  8
1
 10
18.1991
 20
15.2042
 30
0.0000
 42
1.0000
  0
VERTEX
  8
1
 10
18.0721
 20
15.2042
 30
0.0000
  0
SEQEND
  8
0
  0
POLYLINE
  8
1
 66
1
 10
0.0000
 20
0.0000
 30
0.0000
 40
0.2540
 41
0.2540
 70
0
  0
VERTEX
  8
1
 10
18.1356
 20
14.4946
 30
0.0000
  0
VERTEX
  8
1
 10
18.0538
 20
14.5764
 30
0.0000
  0
SEQEND
  8
0
  0
POLYLINE
  8
1
 66
1
 10
0.0000
 20
0.0000
 30
0.0000
 40
0.1270
 41
0.1270
 70
0
  0
VERTEX
  8
1
 10
18.0987
 20
14.6213
 30
0.0000
 42
1.0000
  0
VERTEX
  8
1
 10
18.0089
 20
14.5315
 30
0.0000
  0
SEQEND
  8
0
  0
POLYLINE
  8
1
 66
1
 10
0.0000
 20
0.0000
 30
0.0000
 40
0.1270
 41
0.1270
 70
0
  0
VERTEX
  8
1
 10
18.0907
 20
14.4497
 30
0.0000
 42
1.0000
  0
VERTEX
  8
1
 10
18.1805
 20
14.5395
 30
0.0000
  0
SEQEND
  8
0
  0
POLYLINE
  8
1
 66
1
 10
0.0000
 20
0.0000
 30
0.0000
 40
0.2540
 41
0.2540
 70
0
  0
VERTEX
  8
1
 10
18.0538
 20
14.5764
 30
0.0000
  0
VERTEX
  8
1
 10
17.3961
 20
14.5764
 30
0.0000
  0
SEQEND
  8
0
  0
POLYLINE
  8
1
 66
1
 10
0.0000
 20
0.0000
 30
0.0000
 40
0.1270
 41
0.1270
 70
0
  0
VERTEX
  8
1
 10
17.3961
 20
14.6399
 30
0.0000
 42
1.0000
  0
VERTEX
  8
1
 10
17.3961
 20
14.5129
 30
0.0000
  0
SEQEND
  8
0
  0
POLYLINE
  8
1
 66
1
 10
0.0000
 20
0.0000
 30
0.0000
 40
0.1270
 41
0.1270
 70
0
  0
VERTEX
  8
1
 10
18.0538
 20
14.5129
 30
0.0000
 42
1.0000
  0
VERTEX
  8
1
 10
18.0538
 20
14.6399
 30
0.0000
  0
SEQEND
  8
0
  0
POLYLINE
  8
1
 66
1
 10
0.0000
 20
0.0000
 30
0.0000
 40
0.2540
 41
0.2540
 70
0
  0
VERTEX
  8
1
 10
17.3961
 20
14.5764
 30
0.0000
  0
VERTEX
  8
1
 10
17.1431
 20
14.3235
 30
0.0000
  0
SEQEND
  8
0
  0
POLYLINE
  8
1
 66
1
 10
0.0000
 20
0.0000
 30
0.0000
 40
0.1270
 41
0.1270
 70
0
  0
VERTEX
  8
1
 10
17.0982
 20
14.3684
 30
0.0000
 42
1.0000
  0
VERTEX
  8
1
 10
17.1880
 20
14.2786
 30
0.0000
  0
SEQEND
  8
0
  0
POLYLINE
  8
1
 66
1
 10
0.0000
 20
0.0000
 30
0.0000
 40
0.1270
 41
0.1270
 70
0
  0
VERTEX
  8
1
 10
17.4410
 20
14.5315
 30
0.0000
 42
1.0000
  0
VERTEX
  8
1
 10
17.3512
 20
14.6213
 30
0.0000
  0
SEQEND
  8
0
  0
POLYLINE
  8
1
 66
1
 10
0.0000
 20
0.0000
 30
0.0000
 40
0.2540
 41
0.2540
 70
0
  0
VERTEX
  8
1
 10
17.1431
 20
14.3235
 30
0.0000
  0
VERTEX
  8
1
 10
17.1431
 20
14.2122
 30
0.0000
  0
SEQEND
  8
0
  0
POLYLINE
  8
1
 66
1
 10
0.0000
 20
0.0000
 30
0.0000
 40
0.1270
 41
0.1270
 70
0
  0
VERTEX
  8
1
 10
17.0796
 20
14.2122
 30
0.0000
 42
1.0000
  0
VERTEX
  8
1
 10
17.2066
 20
14.2122
 30
0.0000
  0
SEQEND
  8
0
  0
POLYLINE
  8
1
 66
1
 10
0.0000
 20
0.0000
 30
0.0000
 40
0.1270
 41
0.1270
 70
0
  0
VERTEX
  8
1
 10
17.2066
 20
14.3235
 30
0.0000
 42
1.0000
  0
VERTEX
  8
1
 10
17.0796
 20
14.3235
 30
0.0000
  0
SEQEND
  8
0
  0
POLYLINE
  8
1
 66
1
 10
0.0000
 20
0.0000
 30
0.0000
 40
0.2540
 41
0.2540
 70
0
  0
VERTEX
  8
1
 10
17.1431
 20
14.2122
 30
0.0000
  0
VERTEX
  8
1
 10
16.6050
 20
14.2122
 30
0.0000
  0
SEQEND
  8
0
  0
POLYLINE
  8
1
 66
1
 10
0.0000
 20
0.0000
 30
0.0000
 40
0.1270
 41
0.1270
 70
0
  0
VERTEX
  8
1
 10
16.6050
 20
14.2757
 30
0.0000
 42
1.0000
  0
VERTEX
  8
1
 10
16.6050
 20
14.1487
 30
0.0000
  0
SEQEND
  8
0
  0
POLYLINE
  8
1
 66
1
 10
0.0000
 20
0.0000
 30
0.0000
 40
0.1270
 41
0.1270
 70
0
  0
VERTEX
  8
1
 10
17.1431
 20
14.1487
 30
0.0000
 42
1.0000
  0
VERTEX
  8
1
 10
17.1431
 20
14.2757
 30
0.0000
  0
SEQEND
  8
0
  0
POLYLINE
  8
1
 66
1
 10
0.0000
 20
0.0000
 30
0.0000
 40
0.2540
 41
0.2540
 70
0
  0
VERTEX
  8
1
 10
16.6050
 20
14.2122
 30
0.0000
  0
VERTEX
  8
1
 10
16.5472
 20
14.2700
 30
0.0000
  0
SEQEND
  8
0
  0
POLYLINE
  8
1
 66
1
 10
0.0000
 20
0.0000
 30
0.0000
 40
0.1270
 41
0.1270
 70
0
  0
VERTEX
  8
1
 10
16.5921
 20
14.3149
 30
0.0000
 42
1.0000
  0
VERTEX
  8
1
 10
16.5023
 20
14.2251
 30
0.0000
  0
SEQEND
  8
0
  0
POLYLINE
  8
1
 66
1
 10
0.0000
 20
0.0000
 30
0.0000
 40
0.1270
 41
0.1270
 70
0
  0
VERTEX
  8
1
 10
16.5601
 20
14.1673
 30
0.0000
 42
1.0000
  0
VERTEX
  8
1
 10
16.6499
 20
14.2571
 30
0.0000
  0
SEQEND
  8
0
  0
POLYLINE
  8
1
 66
1
 10
0.0000
 20
0.0000
 30
0.0000
 40
0.2540
 41
0.2540
 70
0
  0
VERTEX
  8
1
 10
16.5472
 20
14.2700
 30
0.0000
  0
VERTEX
  8
1
 10
16.5472
 20
15.4111
 30
0.0000
  0
SEQEND
  8
0
  0
POLYLINE
  8
1
 66
1
 10
0.0000
 20
0.0000
 30
0.0000
 40
0.1270
 41
0.1270
 70
0
  0
VERTEX
  8
1
 10
16.6107
 20
15.4111
 30
0.0000
 42
1.0000
  0
VERTEX
  8
1
 10
16.4837
 20
15.4111
 30
0.0000
  0
SEQEND
  8
0
  0
POLYLINE
  8
1
 66
1
 10
0.0000
 20
0.0000
 30
0.0000
 40
0.1270
 41
0.1270
 70
0
  0
VERTEX
  8
1
 10
16.4837
 20
14.2700
 30
0.0000
 42
1.0000
  0
VERTEX
  8
1
 10
16.6107
 20
14.2700
 30
0.0000
  0
SEQEND
  8
0
  0
POLYLINE
  8
1
 66
1
 10
0.0000
 20
0.0000
 30
0.0000
 40
0.2540
 41
0.2540
 70
0
  0
VERTEX
  8
1
 10
15.3630
 20
20.8280
 30
0.0000
  0
VERTEX
  8
1
 10
21.4630
 20
20.8280
 30
0.0000
  0
SEQEND
  8
0
  0
POLYLINE
  8
1
 66
1
 10
0.0000
 20
0.0000
 30
0.0000
 40
0.1270
 41
0.1270
 70
0
  0
VERTEX
  8
1
 10
21.4630
 20
20.7645
 30
0.0000
 42
1.0000
  0
VERTEX
  8
1
 10
21.4630
 20
20.8915
 30
0.0000
  0
SEQEND
  8
0
  0
POLYLINE
  8
1
 66
1
 10
0.0000
 20
0.0000
 30
0.0000
 40
0.1270
 41
0.1270
 70
0
  0
VERTEX
  8
1
 10
15.3630
 20
20.8915
 30
0.0000
 42
1.0000
  0
VERTEX
  8
1
 10
15.3630
 20
20.7645
 30
0.0000
  0
SEQEND
  8
0
  0
POLYLINE
  8
1
 66
1
 10
0.0000
 20
0.0000
 30
0.0000
 40
0.2540
 41
0.2540
 70
0
  0
VERTEX
  8
1
 10
21.4630
 20
20.8280
 30
0.0000
  0
VERTEX
  8
1
 10
21.4630
 20
20.5897
 30
0.0000
  0
SEQEND
  8
0
  0
POLYLINE
  8
1
 66
1
 10
0.0000
 20
0.0000
 30
0.0000
 40
0.1270
 41
0.1270
 70
0
  0
VERTEX
  8
1
 10
21.3995
 20
20.5897
 30
0.0000
 42
1.0000
  0
VERTEX
  8
1
 10
21.5265
 20
20.5897
 30
0.0000
  0
SEQEND
  8
0
  0
POLYLINE
  8
1
 66
1
 10
0.0000
 20
0.0000
 30
0.0000
 40
0.1270
 41
0.1270
 70
0
  0
VERTEX
  8
1
 10
21.5265
 20
20.8280
 30
0.0000
 42
1.0000
  0
VERTEX
  8
1
 10
21.3995
 20
20.8280
 30
0.0000
  0
SEQEND
  8
0
  0
POLYLINE
  8
1
 66
1
 10
0.0000
 20
0.0000
 30
0.0000
 40
0.2540
 41
0.2540
 70
0
  0
VERTEX
  8
1
 10
21.4630
 20
20.5897
 30
0.0000
  0
VERTEX
  8
1
 10
21.2519
 20
20.8008
 30
0.0000
  0
SEQEND
  8
0
  0
POLYLINE
  8
1
 66
1
 10
0.0000
 20
0.0000
 30
0.0000
 40
0.1270
 41
0.1270
 70
0
  0
VERTEX
  8
1
 10
21.2968
 20
20.8457
 30
0.0000
 42
1.0000
  0
VERTEX
  8
1
 10
21.2070
 20
20.7559
 30
0.0000
  0
SEQEND
  8
0
  0
POLYLINE
  8
1
 66
1
 10
0.0000
 20
0.0000
 30
0.0000
 40
0.1270
 41
0.1270
 70
0
  0
VERTEX
  8
1
 10
21.4181
 20
20.5448
 30
0.0000
 42
1.0000
  0
VERTEX
  8
1
 10
21.5079
 20
20.6346
 30
0.0000
  0
SEQEND
  8
0
  0
POLYLINE
  8
1
 66
1
 10
0.0000
 20
0.0000
 30
0.0000
 40
0.2540
 41
0.2540
 70
0
  0
VERTEX
  8
1
 10
21.2519
 20
20.8008
 30
0.0000
  0
VERTEX
  8
1
 10
19.0941
 20
20.8008
 30
0.0000
  0
SEQEND
  8
0
  0
POLYLINE
  8
1
 66
1
 10
0.0000
 20
0.0000
 30
0.0000
 40
0.1270
 41
0.1270
 70
0
  0
VERTEX
  8
1
 10
19.0941
 20
20.8643
 30
0.0000
 42
1.0000
  0
VERTEX
  8
1
 10
19.0941
 20
20.7373
 30
0.0000
  0
SEQEND
  8
0
  0
POLYLINE
  8
1
 66
1
 10
0.0000
 20
0.0000
 30
0.0000
 40
0.1270
 41
0.1270
 70
0
  0
VERTEX
  8
1
 10
21.2519
 20
20.7373
 30
0.0000
 42
1.0000
  0
VERTEX
  8
1
 10
21.2519
 20
20.8643
 30
0.0000
  0
SEQEND
  8
0
  0
POLYLINE
  8
1
 66
1
 10
0.0000
 20
0.0000
 30
0.0000
 40
0.2540
 41
0.2540
 70
0
  0
VERTEX
  8
1
 10
19.0941
 20
20.8008
 30
0.0000
  0
VERTEX
  8
1
 10
18.8412
 20
20.5479
 30
0.0000
  0
SEQEND
  8
0
  0
POLYLINE
  8
1
 66
1
 10
0.0000
 20
0.0000
 30
0.0000
 40
0.1270
 41
0.1270
 70
0
  0
VERTEX
  8
1
 10
18.7963
 20
20.5928
 30
0.0000
 42
1.0000
  0
VERTEX
  8
1
 10
18.8861
 20
20.5030
 30
0.0000
  0
SEQEND
  8
0
  0
POLYLINE
  8
1
 66
1
 10
0.0000
 20
0.0000
 30
0.0000
 40
0.1270
 41
0.1270
 70
0
  0
VERTEX
  8
1
 10
19.1390
 20
20.7559
 30
0.0000
 42
1.0000
  0
VERTEX
  8
1
 10
19.0492
 20
20.8457
 30
0.0000
  0
SEQEND
  8
0
  0
POLYLINE
  8
1
 66
1
 10
0.0000
 20
0.0000
 30
0.0000
 40
0.2540
 41
0.2540
 70
0
  0
VERTEX
  8
1
 10
18.8412
 20
20.5479
 30
0.0000
  0
VERTEX
  8
1
 10
18.8412
 20
19.1324
 30
0.0000
  0
SEQEND
  8
0
  0
POLYLINE
  8
1
 66
1
 10
0.0000
 20
0.0000
 30
0.0000
 40
0.1270
 41
0.1270
 70
0
  0
VERTEX
  8
1
 10
18.7777
 20
19.1324
 30
0.0000
 42
1.0000
  0
VERTEX
  8
1
 10
18.9047
 20
19.1324
 30
0.0000
  0
SEQEND
  8
0
  0
POLYLINE
  8
1
 66
1
 10
0.0000
 20
0.0000
 30
0.0000
 40
0.1270
 41
0.1270
 70
0
  0
VERTEX
  8
1
 10
18.9047
 20
20.5479
 30
0.0000
 42
1.0000
  0
VERTEX
  8
1
 10
18.7777
 20
20.5479
 30
0.0000
  0
SEQEND
  8
0
  0
POLYLINE
  8
1
 66
1
 10
0.0000
 20
0.0000
 30
0.0000
 40
0.2540
 41
0.2540
 70
0
  0
VERTEX
  8
1
 10
18.8412
 20
19.1324
 30
0.0000
  0
VERTEX
  8
1
 10
18.4210
 20
18.7122
 30
0.0000
  0
SEQEND
  8
0
  0
POLYLINE
  8
1
 66
1
 10
0.0000
 20
0.0000
 30
0.0000
 40
0.1270
 41
0.1270
 70
0
  0
VERTEX
  8
1
 10
18.3761
 20
18.7571
 30
0.0000
 42
1.0000
  0
VERTEX
  8
1
 10
18.4659
 20
18.6673
 30
0.0000
  0
SEQEND
  8
0
  0
POLYLINE
  8
1
 66
1
 10
0.0000
 20
0.0000
 30
0.0000
 40
0.1270
 41
0.1270
 70
0
  0
VERTEX
  8
1
 10
18.8861
 20
19.0875
 30
0.0000
 42
1.0000
  0
VERTEX
  8
1
 10
18.7963
 20
19.1773
 30
0.0000
  0
SEQEND
  8
0
  0
POLYLINE
  8
1
 66
1
 10
0.0000
 20
0.0000
 30
0.0000
 40
0.2540
 41
0.2540
 70
0
  0
VERTEX
  8
1
 10
18.4210
 20
18.7122
 30
0.0000
  0
VERTEX
  8
1
 10
16.0210
 20
18.7122
 30
0.0000
  0
SEQEND
  8
0
  0
POLYLINE
  8
1
 66
1
 10
0.0000
 20
0.0000
 30
0.0000
 40
0.1270
 41
0.1270
 70
0
  0
VERTEX
  8
1
 10
16.0210
 20
18.7757
 30
0.0000
 42
1.0000
  0
VERTEX
  8
1
 10
16.0210
 20
18.6487
 30
0.0000
  0
SEQEND
  8
0
  0
POLYLINE
  8
1
 66
1
 10
0.0000
 20
0.0000
 30
0.0000
 40
0.1270
 41
0.1270
 70
0
  0
VERTEX
  8
1
 10
18.4210
 20
18.6487
 30
0.0000
 42
1.0000
  0
VERTEX
  8
1
 10
18.4210
 20
18.7757
 30
0.0000
  0
SEQEND
  8
0
  0
POLYLINE
  8
1
 66
1
 10
0.0000
 20
0.0000
 30
0.0000
 40
0.2540
 41
0.2540
 70
0
  0
VERTEX
  8
1
 10
16.0210
 20
18.7122
 30
0.0000
  0
VERTEX
  8
1
 10
15.7210
 20
18.4122
 30
0.0000
  0
SEQEND
  8
0
  0
POLYLINE
  8
1
 66
1
 10
0.0000
 20
0.0000
 30
0.0000
 40
0.1270
 41
0.1270
 70
0
  0
VERTEX
  8
1
 10
15.6761
 20
18.4571
 30
0.0000
 42
1.0000
  0
VERTEX
  8
1
 10
15.7659
 20
18.3673
 30
0.0000
  0
SEQEND
  8
0
  0
POLYLINE
  8
1
 66
1
 10
0.0000
 20
0.0000
 30
0.0000
 40
0.1270
 41
0.1270
 70
0
  0
VERTEX
  8
1
 10
16.0659
 20
18.6673
 30
0.0000
 42
1.0000
  0
VERTEX
  8
1
 10
15.9761
 20
18.7571
 30
0.0000
  0
SEQEND
  8
0
  0
POLYLINE
  8
1
 66
1
 10
0.0000
 20
0.0000
 30
0.0000
 40
0.2540
 41
0.2540
 70
0
  0
VERTEX
  8
1
 10
15.7210
 20
18.4122
 30
0.0000
  0
VERTEX
  8
1
 10
15.3788
 20
18.0700
 30
0.0000
  0
SEQEND
  8
0
  0
POLYLINE
  8
1
 66
1
 10
0.0000
 20
0.0000
 30
0.0000
 40
0.1270
 41
0.1270
 70
0
  0
VERTEX
  8
1
 10
15.3339
 20
18.1149
 30
0.0000
 42
1.0000
  0
VERTEX
  8
1
 10
15.4237
 20
18.0251
 30
0.0000
  0
SEQEND
  8
0
  0
POLYLINE
  8
1
 66
1
 10
0.0000
 20
0.0000
 30
0.0000
 40
0.1270
 41
0.1270
 70
0
  0
VERTEX
  8
1
 10
15.7659
 20
18.3673
 30
0.0000
 42
1.0000
  0
VERTEX
  8
1
 10
15.6761
 20
18.4571
 30
0.0000
  0
SEQEND
  8
0
  0
POLYLINE
  8
1
 66
1
 10
0.0000
 20
0.0000
 30
0.0000
 40
0.2540
 41
0.2540
 70
0
  0
VERTEX
  8
1
 10
15.3788
 20
18.0700
 30
0.0000
  0
VERTEX
  8
1
 10
15.3788
 20
13.7860
 30
0.0000
  0
SEQEND
  8
0
  0
POLYLINE
  8
1
 66
1
 10
0.0000
 20
0.0000
 30
0.0000
 40
0.1270
 41
0.1270
 70
0
  0
VERTEX
  8
1
 10
15.3153
 20
13.7860
 30
0.0000
 42
1.0000
  0
VERTEX
  8
1
 10
15.4423
 20
13.7860
 30
0.0000
  0
SEQEND
  8
0
  0
POLYLINE
  8
1
 66
1
 10
0.0000
 20
0.0000
 30
0.0000
 40
0.1270
 41
0.1270
 70
0
  0
VERTEX
  8
1
 10
15.4423
 20
18.0700
 30
0.0000
 42
1.0000
  0
VERTEX
  8
1
 10
15.3153
 20
18.0700
 30
0.0000
  0
SEQEND
  8
0
  0
POLYLINE
  8
1
 66
1
 10
0.0000
 20
0.0000
 30
0.0000
 40
0.2540
 41
0.2540
 70
0
  0
VERTEX
  8
1
 10
15.3788
 20
13.7860
 30
0.0000
  0
VERTEX
  8
1
 10
15.7788
 20
13.3860
 30
0.0000
  0
SEQEND
  8
0
  0
POLYLINE
  8
1
 66
1
 10
0.0000
 20
0.0000
 30
0.0000
 40
0.1270
 41
0.1270
 70
0
  0
VERTEX
  8
1
 10
15.7339
 20
13.3411
 30
0.0000
 42
1.0000
  0
VERTEX
  8
1
 10
15.8237
 20
13.4309
 30
0.0000
  0
SEQEND
  8
0
  0
POLYLINE
  8
1
 66
1
 10
0.0000
 20
0.0000
 30
0.0000
 40
0.1270
 41
0.1270
 70
0
  0
VERTEX
  8
1
 10
15.4237
 20
13.8309
 30
0.0000
 42
1.0000
  0
VERTEX
  8
1
 10
15.3339
 20
13.7411
 30
0.0000
  0
SEQEND
  8
0
  0
POLYLINE
  8
1
 66
1
 10
0.0000
 20
0.0000
 30
0.0000
 40
0.2540
 41
0.2540
 70
0
  0
VERTEX
  8
1
 10
15.7788
 20
13.3860
 30
0.0000
  0
VERTEX
  8
1
 10
15.9749
 20
13.1899
 30
0.0000
  0
SEQEND
  8
0
  0
POLYLINE
  8
1
 66
1
 10
0.0000
 20
0.0000
 30
0.0000
 40
0.1270
 41
0.1270
 70
0
  0
VERTEX
  8
1
 10
15.9300
 20
13.1450
 30
0.0000
 42
1.0000
  0
VERTEX
  8
1
 10
16.0198
 20
13.2348
 30
0.0000
  0
SEQEND
  8
0
  0
POLYLINE
  8
1
 66
1
 10
0.0000
 20
0.0000
 30
0.0000
 40
0.1270
 41
0.1270
 70
0
  0
VERTEX
  8
1
 10
15.8237
 20
13.4309
 30
0.0000
 42
1.0000
  0
VERTEX
  8
1
 10
15.7339
 20
13.3411
 30
0.0000
  0
SEQEND
  8
0
  0
POLYLINE
  8
1
 66
1
 10
0.0000
 20
0.0000
 30
0.0000
 40
0.2540
 41
0.2540
 70
0
  0
VERTEX
  8
1
 10
15.9749
 20
13.1899
 30
0.0000
  0
VERTEX
  8
1
 10
15.7638
 20
12.9789
 30
0.0000
  0
SEQEND
  8
0
  0
POLYLINE
  8
1
 66
1
 10
0.0000
 20
0.0000
 30
0.0000
 40
0.1270
 41
0.1270
 70
0
  0
VERTEX
  8
1
 10
15.7189
 20
13.0238
 30
0.0000
 42
1.0000
  0
VERTEX
  8
1
 10
15.8087
 20
12.9340
 30
0.0000
  0
SEQEND
  8
0
  0
POLYLINE
  8
1
 66
1
 10
0.0000
 20
0.0000
 30
0.0000
 40
0.1270
 41
0.1270
 70
0
  0
VERTEX
  8
1
 10
16.0198
 20
13.1450
 30
0.0000
 42
1.0000
  0
VERTEX
  8
1
 10
15.9300
 20
13.2348
 30
0.0000
  0
SEQEND
  8
0
  0
POLYLINE
  8
1
 66
1
 10
0.0000
 20
0.0000
 30
0.0000
 40
0.2540
 41
0.2540
 70
0
  0
VERTEX
  8
1
 10
15.7638
 20
12.9789
 30
0.0000
  0
VERTEX
  8
1
 10
15.7638
 20
12.2342
 30
0.0000
  0
SEQEND
  8
0
  0
POLYLINE
  8
1
 66
1
 10
0.0000
 20
0.0000
 30
0.0000
 40
0.1270
 41
0.1270
 70
0
  0
VERTEX
  8
1
 10
15.7003
 20
12.2342
 30
0.0000
 42
1.0000
  0
VERTEX
  8
1
 10
15.8273
 20
12.2342
 30
0.0000
  0
SEQEND
  8
0
  0
POLYLINE
  8
1
 66
1
 10
0.0000
 20
0.0000
 30
0.0000
 40
0.1270
 41
0.1270
 70
0
  0
VERTEX
  8
1
 10
15.8273
 20
12.9789
 30
0.0000
 42
1.0000
  0
VERTEX
  8
1
 10
15.7003
 20
12.9789
 30
0.0000
  0
SEQEND
  8
0
  0
POLYLINE
  8
1
 66
1
 10
0.0000
 20
0.0000
 30
0.0000
 40
0.2540
 41
0.2540
 70
0
  0
VERTEX
  8
1
 10
15.7638
 20
12.2342
 30
0.0000
  0
VERTEX
  8
1
 10
15.6430
 20
12.2342
 30
0.0000
  0
SEQEND
  8
0
  0
POLYLINE
  8
1
 66
1
 10
0.0000
 20
0.0000
 30
0.0000
 40
0.1270
 41
0.1270
 70
0
  0
VERTEX
  8
1
 10
15.6430
 20
12.2977
 30
0.0000
 42
1.0000
  0
VERTEX
  8
1
 10
15.6430
 20
12.1707
 30
0.0000
  0
SEQEND
  8
0
  0
POLYLINE
  8
1
 66
1
 10
0.0000
 20
0.0000
 30
0.0000
 40
0.1270
 41
0.1270
 70
0
  0
VERTEX
  8
1
 10
15.7638
 20
12.1707
 30
0.0000
 42
1.0000
  0
VERTEX
  8
1
 10
15.7638
 20
12.2977
 30
0.0000
  0
SEQEND
  8
0
  0
POLYLINE
  8
1
 66
1
 10
0.0000
 20
0.0000
 30
0.0000
 40
0.2540
 41
0.2540
 70
0
  0
VERTEX
  8
1
 10
15.6430
 20
12.2342
 30
0.0000
  0
VERTEX
  8
1
 10
15.4210
 20
12.0122
 30
0.0000
  0
SEQEND
  8
0
  0
POLYLINE
  8
1
 66
1
 10
0.0000
 20
0.0000
 30
0.0000
 40
0.1270
 41
0.1270
 70
0
  0
VERTEX
  8
1
 10
15.3761
 20
12.0571
 30
0.0000
 42
1.0000
  0
VERTEX
  8
1
 10
15.4659
 20
11.9673
 30
0.0000
  0
SEQEND
  8
0
  0
POLYLINE
  8
1
 66
1
 10
0.0000
 20
0.0000
 30
0.0000
 40
0.1270
 41
0.1270
 70
0
  0
VERTEX
  8
1
 10
15.6879
 20
12.1893
 30
0.0000
 42
1.0000
  0
VERTEX
  8
1
 10
15.5981
 20
12.2791
 30
0.0000
  0
SEQEND
  8
0
  0
POLYLINE
  8
1
 66
1
 10
0.0000
 20
0.0000
 30
0.0000
 40
0.2540
 41
0.2540
 70
0
  0
VERTEX
  8
1
 10
15.4210
 20
12.0122
 30
0.0000
  0
VERTEX
  8
1
 10
15.3630
 20
11.9542
 30
0.0000
  0
SEQEND
  8
0
  0
POLYLINE
  8
1
 66
1
 10
0.0000
 20
0.0000
 30
0.0000
 40
0.1270
 41
0.1270
 70
0
  0
VERTEX
  8
1
 10
15.3181
 20
11.9991
 30
0.0000
 42
1.0000
  0
VERTEX
  8
1
 10
15.4079
 20
11.9093
 30
0.0000
  0
SEQEND
  8
0
  0
POLYLINE
  8
1
 66
1
 10
0.0000
 20
0.0000
 30
0.0000
 40
0.1270
 41
0.1270
 70
0
  0
VERTEX
  8
1
 10
15.4659
 20
11.9673
 30
0.0000
 42
1.0000
  0
VERTEX
  8
1
 10
15.3761
 20
12.0571
 30
0.0000
  0
SEQEND
  8
0
  0
POLYLINE
  8
1
 66
1
 10
0.0000
 20
0.0000
 30
0.0000
 40
0.2540
 41
0.2540
 70
0
  0
VERTEX
  8
1
 10
15.3630
 20
11.9542
 30
0.0000
  0
VERTEX
  8
1
 10
15.3630
 20
20.8280
 30
0.0000
  0
SEQEND
  8
0
  0
POLYLINE
  8
1
 66
1
 10
0.0000
 20
0.0000
 30
0.0000
 40
0.1270
 41
0.1270
 70
0
  0
VERTEX
  8
1
 10
15.4265
 20
20.8280
 30
0.0000
 42
1.0000
  0
VERTEX
  8
1
 10
15.2995
 20
20.8280
 30
0.0000
  0
SEQEND
  8
0
  0
POLYLINE
  8
1
 66
1
 10
0.0000
 20
0.0000
 30
0.0000
 40
0.1270
 41
0.1270
 70
0
  0
VERTEX
  8
1
 10
15.2995
 20
11.9542
 30
0.0000
 42
1.0000
  0
VERTEX
  8
1
 10
15.4265
 20
11.9542
 30
0.0000
  0
SEQEND
  8
0
  0
POLYLINE
  8
1
 66
1
 10
0.0000
 20
0.0000
 30
0.0000
 40
0.2540
 41
0.2540
 70
0
  0
VERTEX
  8
1
 10
15.3630
 20
12.1920
 30
0.0000
  0
VERTEX
  8
1
 10
15.6008
 20
12.1920
 30
0.0000
  0
SEQEND
  8
0
  0
POLYLINE
  8
1
 66
1
 10
0.0000
 20
0.0000
 30
0.0000
 40
0.1270
 41
0.1270
 70
0
  0
VERTEX
  8
1
 10
15.6008
 20
12.1285
 30
0.0000
 42
1.0000
  0
VERTEX
  8
1
 10
15.6008
 20
12.2555
 30
0.0000
  0
SEQEND
  8
0
  0
POLYLINE
  8
1
 66
1
 10
0.0000
 20
0.0000
 30
0.0000
 40
0.1270
 41
0.1270
 70
0
  0
VERTEX
  8
1
 10
15.3630
 20
12.2555
 30
0.0000
 42
1.0000
  0
VERTEX
  8
1
 10
15.3630
 20
12.1285
 30
0.0000
  0
SEQEND
  8
0
  0
POLYLINE
  8
1
 66
1
 10
0.0000
 20
0.0000
 30
0.0000
 40
0.2540
 41
0.2540
 70
0
  0
VERTEX
  8
1
 10
15.3630
 20
12.4460
 30
0.0000
  0
VERTEX
  8
1
 10
15.7638
 20
12.4460
 30
0.0000
  0
SEQEND
  8
0
  0
POLYLINE
  8
1
 66
1
 10
0.0000
 20
0.0000
 30
0.0000
 40
0.1270
 41
0.1270
 70
0
  0
VERTEX
  8
1
 10
15.7638
 20
12.3825
 30
0.0000
 42
1.0000
  0
VERTEX
  8
1
 10
15.7638
 20
12.5095
 30
0.0000
  0
SEQEND
  8
0
  0
POLYLINE
  8
1
 66
1
 10
0.0000
 20
0.0000
 30
0.0000
 40
0.1270
 41
0.1270
 70
0
  0
VERTEX
  8
1
 10
15.3630
 20
12.5095
 30
0.0000
 42
1.0000
  0
VERTEX
  8
1
 10
15.3630
 20
12.3825
 30
0.0000
  0
SEQEND
  8
0
  0
POLYLINE
  8
1
 66
1
 10
0.0000
 20
0.0000
 30
0.0000
 40
0.2540
 41
0.2540
 70
0
  0
VERTEX
  8
1
 10
15.3630
 20
12.7000
 30
0.0000
  0
VERTEX
  8
1
 10
15.7638
 20
12.7000
 30
0.0000
  0
SEQEND
  8
0
  0
POLYLINE
  8
1
 66
1
 10
0.0000
 20
0.0000
 30
0.0000
 40
0.1270
 41
0.1270
 70
0
  0
VERTEX
  8
1
 10
15.7638
 20
12.6365
 30
0.0000
 42
1.0000
  0
VERTEX
  8
1
 10
15.7638
 20
12.7635
 30
0.0000
  0
SEQEND
  8
0
  0
POLYLINE
  8
1
 66
1
 10
0.0000
 20
0.0000
 30
0.0000
 40
0.1270
 41
0.1270
 70
0
  0
VERTEX
  8
1
 10
15.3630
 20
12.7635
 30
0.0000
 42
1.0000
  0
VERTEX
  8
1
 10
15.3630
 20
12.6365
 30
0.0000
  0
SEQEND
  8
0
  0
POLYLINE
  8
1
 66
1
 10
0.0000
 20
0.0000
 30
0.0000
 40
0.2540
 41
0.2540
 70
0
  0
VERTEX
  8
1
 10
15.3630
 20
12.9540
 30
0.0000
  0
VERTEX
  8
1
 10
15.7638
 20
12.9540
 30
0.0000
  0
SEQEND
  8
0
  0
POLYLINE
  8
1
 66
1
 10
0.0000
 20
0.0000
 30
0.0000
 40
0.1270
 41
0.1270
 70
0
  0
VERTEX
  8
1
 10
15.7638
 20
12.8905
 30
0.0000
 42
1.0000
  0
VERTEX
  8
1
 10
15.7638
 20
13.0175
 30
0.0000
  0
SEQEND
  8
0
  0
POLYLINE
  8
1
 66
1
 10
0.0000
 20
0.0000
 30
0.0000
 40
0.1270
 41
0.1270
 70
0
  0
VERTEX
  8
1
 10
15.3630
 20
13.0175
 30
0.0000
 42
1.0000
  0
VERTEX
  8
1
 10
15.3630
 20
12.8905
 30
0.0000
  0
SEQEND
  8
0
  0
POLYLINE
  8
1
 66
1
 10
0.0000
 20
0.0000
 30
0.0000
 40
0.2540
 41
0.2540
 70
0
  0
VERTEX
  8
1
 10
15.3630
 20
13.2080
 30
0.0000
  0
VERTEX
  8
1
 10
15.9568
 20
13.2080
 30
0.0000
  0
SEQEND
  8
0
  0
POLYLINE
  8
1
 66
1
 10
0.0000
 20
0.0000
 30
0.0000
 40
0.1270
 41
0.1270
 70
0
  0
VERTEX
  8
1
 10
15.9568
 20
13.1445
 30
0.0000
 42
1.0000
  0
VERTEX
  8
1
 10
15.9568
 20
13.2715
 30
0.0000
  0
SEQEND
  8
0
  0
POLYLINE
  8
1
 66
1
 10
0.0000
 20
0.0000
 30
0.0000
 40
0.1270
 41
0.1270
 70
0
  0
VERTEX
  8
1
 10
15.3630
 20
13.2715
 30
0.0000
 42
1.0000
  0
VERTEX
  8
1
 10
15.3630
 20
13.1445
 30
0.0000
  0
SEQEND
  8
0
  0
POLYLINE
  8
1
 66
1
 10
0.0000
 20
0.0000
 30
0.0000
 40
0.2540
 41
0.2540
 70
0
  0
VERTEX
  8
1
 10
19.3067
 20
13.2080
 30
0.0000
  0
VERTEX
  8
1
 10
19.3070
 20
13.2080
 30
0.0000
  0
SEQEND
  8
0
  0
POLYLINE
  8
1
 66
1
 10
0.0000
 20
0.0000
 30
0.0000
 40
0.1270
 41
0.1270
 70
0
  0
VERTEX
  8
1
 10
19.3070
 20
13.1445
 30
0.0000
 42
1.0000
  0
VERTEX
  8
1
 10
19.3070
 20
13.2715
 30
0.0000
  0
SEQEND
  8
0
  0
POLYLINE
  8
1
 66
1
 10
0.0000
 20
0.0000
 30
0.0000
 40
0.1270
 41
0.1270
 70
0
  0
VERTEX
  8
1
 10
19.3067
 20
13.2715
 30
0.0000
 42
1.0000
  0
VERTEX
  8
1
 10
19.3067
 20
13.1445
 30
0.0000
  0
SEQEND
  8
0
  0
POLYLINE
  8
1
 66
1
 10
0.0000
 20
0.0000
 30
0.0000
 40
0.2540
 41
0.2540
 70
0
  0
VERTEX
  8
1
 10
15.3630
 20
13.4620
 30
0.0000
  0
VERTEX
  8
1
 10
15.7028
 20
13.4620
 30
0.0000
  0
SEQEND
  8
0
  0
POLYLINE
  8
1
 66
1
 10
0.0000
 20
0.0000
 30
0.0000
 40
0.1270
 41
0.1270
 70
0
  0
VERTEX
  8
1
 10
15.7028
 20
13.3985
 30
0.0000
 42
1.0000
  0
VERTEX
  8
1
 10
15.7028
 20
13.5255
 30
0.0000
  0
SEQEND
  8
0
  0
POLYLINE
  8
1
 66
1
 10
0.0000
 20
0.0000
 30
0.0000
 40
0.1270
 41
0.1270
 70
0
  0
VERTEX
  8
1
 10
15.3630
 20
13.5255
 30
0.0000
 42
1.0000
  0
VERTEX
  8
1
 10
15.3630
 20
13.3985
 30
0.0000
  0
SEQEND
  8
0
  0
POLYLINE
  8
1
 66
1
 10
0.0000
 20
0.0000
 30
0.0000
 40
0.2540
 41
0.2540
 70
0
  0
VERTEX
  8
1
 10
19.3091
 20
13.4620
 30
0.0000
  0
VERTEX
  8
1
 10
20.3788
 20
13.4620
 30
0.0000
  0
SEQEND
  8
0
  0
POLYLINE
  8
1
 66
1
 10
0.0000
 20
0.0000
 30
0.0000
 40
0.1270
 41
0.1270
 70
0
  0
VERTEX
  8
1
 10
20.3788
 20
13.3985
 30
0.0000
 42
1.0000
  0
VERTEX
  8
1
 10
20.3788
 20
13.5255
 30
0.0000
  0
SEQEND
  8
0
  0
POLYLINE
  8
1
 66
1
 10
0.0000
 20
0.0000
 30
0.0000
 40
0.1270
 41
0.1270
 70
0
  0
VERTEX
  8
1
 10
19.3091
 20
13.5255
 30
0.0000
 42
1.0000
  0
VERTEX
  8
1
 10
19.3091
 20
13.3985
 30
0.0000
  0
SEQEND
  8
0
  0
POLYLINE
  8
1
 66
1
 10
0.0000
 20
0.0000
 30
0.0000
 40
0.2540
 41
0.2540
 70
0
  0
VERTEX
  8
1
 10
15.3630
 20
13.7160
 30
0.0000
  0
VERTEX
  8
1
 10
15.4488
 20
13.7160
 30
0.0000
  0
SEQEND
  8
0
  0
POLYLINE
  8
1
 66
1
 10
0.0000
 20
0.0000
 30
0.0000
 40
0.1270
 41
0.1270
 70
0
  0
VERTEX
  8
1
 10
15.4488
 20
13.6525
 30
0.0000
 42
1.0000
  0
VERTEX
  8
1
 10
15.4488
 20
13.7795
 30
0.0000
  0
SEQEND
  8
0
  0
POLYLINE
  8
1
 66
1
 10
0.0000
 20
0.0000
 30
0.0000
 40
0.1270
 41
0.1270
 70
0
  0
VERTEX
  8
1
 10
15.3630
 20
13.7795
 30
0.0000
 42
1.0000
  0
VERTEX
  8
1
 10
15.3630
 20
13.6525
 30
0.0000
  0
SEQEND
  8
0
  0
POLYLINE
  8
1
 66
1
 10
0.0000
 20
0.0000
 30
0.0000
 40
0.2540
 41
0.2540
 70
0
  0
VERTEX
  8
1
 10
19.3091
 20
13.7160
 30
0.0000
  0
VERTEX
  8
1
 10
20.3788
 20
13.7160
 30
0.0000
  0
SEQEND
  8
0
  0
POLYLINE
  8
1
 66
1
 10
0.0000
 20
0.0000
 30
0.0000
 40
0.1270
 41
0.1270
 70
0
  0
VERTEX
  8
1
 10
20.3788
 20
13.6525
 30
0.0000
 42
1.0000
  0
VERTEX
  8
1
 10
20.3788
 20
13.7795
 30
0.0000
  0
SEQEND
  8
0
  0
POLYLINE
  8
1
 66
1
 10
0.0000
 20
0.0000
 30
0.0000
 40
0.1270
 41
0.1270
 70
0
  0
VERTEX
  8
1
 10
19.3091
 20
13.7795
 30
0.0000
 42
1.0000
  0
VERTEX
  8
1
 10
19.3091
 20
13.6525
 30
0.0000
  0
SEQEND
  8
0
  0
POLYLINE
  8
1
 66
1
 10
0.0000
 20
0.0000
 30
0.0000
 40
0.2540
 41
0.2540
 70
0
  0
VERTEX
  8
1
 10
15.3630
 20
13.9700
 30
0.0000
  0
VERTEX
  8
1
 10
15.3788
 20
13.9700
 30
0.0000
  0
SEQEND
  8
0
  0
POLYLINE
  8
1
 66
1
 10
0.0000
 20
0.0000
 30
0.0000
 40
0.1270
 41
0.1270
 70
0
  0
VERTEX
  8
1
 10
15.3788
 20
13.9065
 30
0.0000
 42
1.0000
  0
VERTEX
  8
1
 10
15.3788
 20
14.0335
 30
0.0000
  0
SEQEND
  8
0
  0
POLYLINE
  8
1
 66
1
 10
0.0000
 20
0.0000
 30
0.0000
 40
0.1270
 41
0.1270
 70
0
  0
VERTEX
  8
1
 10
15.3630
 20
14.0335
 30
0.0000
 42
1.0000
  0
VERTEX
  8
1
 10
15.3630
 20
13.9065
 30
0.0000
  0
SEQEND
  8
0
  0
POLYLINE
  8
1
 66
1
 10
0.0000
 20
0.0000
 30
0.0000
 40
0.2540
 41
0.2540
 70
0
  0
VERTEX
  8
1
 10
19.3067
 20
13.9700
 30
0.0000
  0
VERTEX
  8
1
 10
20.3788
 20
13.9700
 30
0.0000
  0
SEQEND
  8
0
  0
POLYLINE
  8
1
 66
1
 10
0.0000
 20
0.0000
 30
0.0000
 40
0.1270
 41
0.1270
 70
0
  0
VERTEX
  8
1
 10
20.3788
 20
13.9065
 30
0.0000
 42
1.0000
  0
VERTEX
  8
1
 10
20.3788
 20
14.0335
 30
0.0000
  0
SEQEND
  8
0
  0
POLYLINE
  8
1
 66
1
 10
0.0000
 20
0.0000
 30
0.0000
 40
0.1270
 41
0.1270
 70
0
  0
VERTEX
  8
1
 10
19.3067
 20
14.0335
 30
0.0000
 42
1.0000
  0
VERTEX
  8
1
 10
19.3067
 20
13.9065
 30
0.0000
  0
SEQEND
  8
0
  0
POLYLINE
  8
1
 66
1
 10
0.0000
 20
0.0000
 30
0.0000
 40
0.2540
 41
0.2540
 70
0
  0
VERTEX
  8
1
 10
15.3630
 20
14.2240
 30
0.0000
  0
VERTEX
  8
1
 10
15.3788
 20
14.2240
 30
0.0000
  0
SEQEND
  8
0
  0
POLYLINE
  8
1
 66
1
 10
0.0000
 20
0.0000
 30
0.0000
 40
0.1270
 41
0.1270
 70
0
  0
VERTEX
  8
1
 10
15.3788
 20
14.1605
 30
0.0000
 42
1.0000
  0
VERTEX
  8
1
 10
15.3788
 20
14.2875
 30
0.0000
  0
SEQEND
  8
0
  0
POLYLINE
  8
1
 66
1
 10
0.0000
 20
0.0000
 30
0.0000
 40
0.1270
 41
0.1270
 70
0
  0
VERTEX
  8
1
 10
15.3630
 20
14.2875
 30
0.0000
 42
1.0000
  0
VERTEX
  8
1
 10
15.3630
 20
14.1605
 30
0.0000
  0
SEQEND
  8
0
  0
POLYLINE
  8
1
 66
1
 10
0.0000
 20
0.0000
 30
0.0000
 40
0.2540
 41
0.2540
 70
0
  0
VERTEX
  8
1
 10
16.5932
 20
14.2240
 30
0.0000
  0
VERTEX
  8
1
 10
17.1431
 20
14.2240
 30
0.0000
  0
SEQEND
  8
0
  0
POLYLINE
  8
1
 66
1
 10
0.0000
 20
0.0000
 30
0.0000
 40
0.1270
 41
0.1270
 70
0
  0
VERTEX
  8
1
 10
17.1431
 20
14.1605
 30
0.0000
 42
1.0000
  0
VERTEX
  8
1
 10
17.1431
 20
14.2875
 30
0.0000
  0
SEQEND
  8
0
  0
POLYLINE
  8
1
 66
1
 10
0.0000
 20
0.0000
 30
0.0000
 40
0.1270
 41
0.1270
 70
0
  0
VERTEX
  8
1
 10
16.5932
 20
14.2875
 30
0.0000
 42
1.0000
  0
VERTEX
  8
1
 10
16.5932
 20
14.1605
 30
0.0000
  0
SEQEND
  8
0
  0
POLYLINE
  8
1
 66
1
 10
0.0000
 20
0.0000
 30
0.0000
 40
0.2540
 41
0.2540
 70
0
  0
VERTEX
  8
1
 10
19.3067
 20
14.2240
 30
0.0000
  0
VERTEX
  8
1
 10
20.3408
 20
14.2240
 30
0.0000
  0
SEQEND
  8
0
  0
POLYLINE
  8
1
 66
1
 10
0.0000
 20
0.0000
 30
0.0000
 40
0.1270
 41
0.1270
 70
0
  0
VERTEX
  8
1
 10
20.3408
 20
14.1605
 30
0.0000
 42
1.0000
  0
VERTEX
  8
1
 10
20.3408
 20
14.2875
 30
0.0000
  0
SEQEND
  8
0
  0
POLYLINE
  8
1
 66
1
 10
0.0000
 20
0.0000
 30
0.0000
 40
0.1270
 41
0.1270
 70
0
  0
VERTEX
  8
1
 10
19.3067
 20
14.2875
 30
0.0000
 42
1.0000
  0
VERTEX
  8
1
 10
19.3067
 20
14.1605
 30
0.0000
  0
SEQEND
  8
0
  0
POLYLINE
  8
1
 66
1
 10
0.0000
 20
0.0000
 30
0.0000
 40
0.2540
 41
0.2540
 70
0
  0
VERTEX
  8
1
 10
15.3630
 20
14.4780
 30
0.0000
  0
VERTEX
  8
1
 10
15.3788
 20
14.4780
 30
0.0000
  0
SEQEND
  8
0
  0
POLYLINE
  8
1
 66
1
 10
0.0000
 20
0.0000
 30
0.0000
 40
0.1270
 41
0.1270
 70
0
  0
VERTEX
  8
1
 10
15.3788
 20
14.4145
 30
0.0000
 42
1.0000
  0
VERTEX
  8
1
 10
15.3788
 20
14.5415
 30
0.0000
  0
SEQEND
  8
0
  0
POLYLINE
  8
1
 66
1
 10
0.0000
 20
0.0000
 30
0.0000
 40
0.1270
 41
0.1270
 70
0
  0
VERTEX
  8
1
 10
15.3630
 20
14.5415
 30
0.0000
 42
1.0000
  0
VERTEX
  8
1
 10
15.3630
 20
14.4145
 30
0.0000
  0
SEQEND
  8
0
  0
POLYLINE
  8
1
 66
1
 10
0.0000
 20
0.0000
 30
0.0000
 40
0.2540
 41
0.2540
 70
0
  0
VERTEX
  8
1
 10
16.5472
 20
14.4780
 30
0.0000
  0
VERTEX
  8
1
 10
17.2977
 20
14.4780
 30
0.0000
  0
SEQEND
  8
0
  0
POLYLINE
  8
1
 66
1
 10
0.0000
 20
0.0000
 30
0.0000
 40
0.1270
 41
0.1270
 70
0
  0
VERTEX
  8
1
 10
17.2977
 20
14.4145
 30
0.0000
 42
1.0000
  0
VERTEX
  8
1
 10
17.2977
 20
14.5415
 30
0.0000
  0
SEQEND
  8
0
  0
POLYLINE
  8
1
 66
1
 10
0.0000
 20
0.0000
 30
0.0000
 40
0.1270
 41
0.1270
 70
0
  0
VERTEX
  8
1
 10
16.5472
 20
14.5415
 30
0.0000
 42
1.0000
  0
VERTEX
  8
1
 10
16.5472
 20
14.4145
 30
0.0000
  0
SEQEND
  8
0
  0
POLYLINE
  8
1
 66
1
 10
0.0000
 20
0.0000
 30
0.0000
 40
0.2540
 41
0.2540
 70
0
  0
VERTEX
  8
1
 10
19.3040
 20
14.4780
 30
0.0000
  0
VERTEX
  8
1
 10
20.0868
 20
14.4780
 30
0.0000
  0
SEQEND
  8
0
  0
POLYLINE
  8
1
 66
1
 10
0.0000
 20
0.0000
 30
0.0000
 40
0.1270
 41
0.1270
 70
0
  0
VERTEX
  8
1
 10
20.0868
 20
14.4145
 30
0.0000
 42
1.0000
  0
VERTEX
  8
1
 10
20.0868
 20
14.5415
 30
0.0000
  0
SEQEND
  8
0
  0
POLYLINE
  8
1
 66
1
 10
0.0000
 20
0.0000
 30
0.0000
 40
0.1270
 41
0.1270
 70
0
  0
VERTEX
  8
1
 10
19.3040
 20
14.5415
 30
0.0000
 42
1.0000
  0
VERTEX
  8
1
 10
19.3040
 20
14.4145
 30
0.0000
  0
SEQEND
  8
0
  0
POLYLINE
  8
1
 66
1
 10
0.0000
 20
0.0000
 30
0.0000
 40
0.2540
 41
0.2540
 70
0
  0
VERTEX
  8
1
 10
15.3630
 20
14.7320
 30
0.0000
  0
VERTEX
  8
1
 10
15.3788
 20
14.7320
 30
0.0000
  0
SEQEND
  8
0
  0
POLYLINE
  8
1
 66
1
 10
0.0000
 20
0.0000
 30
0.0000
 40
0.1270
 41
0.1270
 70
0
  0
VERTEX
  8
1
 10
15.3788
 20
14.6685
 30
0.0000
 42
1.0000
  0
VERTEX
  8
1
 10
15.3788
 20
14.7955
 30
0.0000
  0
SEQEND
  8
0
  0
POLYLINE
  8
1
 66
1
 10
0.0000
 20
0.0000
 30
0.0000
 40
0.1270
 41
0.1270
 70
0
  0
VERTEX
  8
1
 10
15.3630
 20
14.7955
 30
0.0000
 42
1.0000
  0
VERTEX
  8
1
 10
15.3630
 20
14.6685
 30
0.0000
  0
SEQEND
  8
0
  0
POLYLINE
  8
1
 66
1
 10
0.0000
 20
0.0000
 30
0.0000
 40
0.2540
 41
0.2540
 70
0
  0
VERTEX
  8
1
 10
16.5472
 20
14.7320
 30
0.0000
  0
VERTEX
  8
1
 10
18.1356
 20
14.7320
 30
0.0000
  0
SEQEND
  8
0
  0
POLYLINE
  8
1
 66
1
 10
0.0000
 20
0.0000
 30
0.0000
 40
0.1270
 41
0.1270
 70
0
  0
VERTEX
  8
1
 10
18.1356
 20
14.6685
 30
0.0000
 42
1.0000
  0
VERTEX
  8
1
 10
18.1356
 20
14.7955
 30
0.0000
  0
SEQEND
  8
0
  0
POLYLINE
  8
1
 66
1
 10
0.0000
 20
0.0000
 30
0.0000
 40
0.1270
 41
0.1270
 70
0
  0
VERTEX
  8
1
 10
16.5472
 20
14.7955
 30
0.0000
 42
1.0000
  0
VERTEX
  8
1
 10
16.5472
 20
14.6685
 30
0.0000
  0
SEQEND
  8
0
  0
POLYLINE
  8
1
 66
1
 10
0.0000
 20
0.0000
 30
0.0000
 40
0.2540
 41
0.2540
 70
0
  0
VERTEX
  8
1
 10
19.3040
 20
14.7320
 30
0.0000
  0
VERTEX
  8
1
 10
20.0788
 20
14.7320
 30
0.0000
  0
SEQEND
  8
0
  0
POLYLINE
  8
1
 66
1
 10
0.0000
 20
0.0000
 30
0.0000
 40
0.1270
 41
0.1270
 70
0
  0
VERTEX
  8
1
 10
20.0788
 20
14.6685
 30
0.0000
 42
1.0000
  0
VERTEX
  8
1
 10
20.0788
 20
14.7955
 30
0.0000
  0
SEQEND
  8
0
  0
POLYLINE
  8
1
 66
1
 10
0.0000
 20
0.0000
 30
0.0000
 40
0.1270
 41
0.1270
 70
0
  0
VERTEX
  8
1
 10
19.3040
 20
14.7955
 30
0.0000
 42
1.0000
  0
VERTEX
  8
1
 10
19.3040
 20
14.6685
 30
0.0000
  0
SEQEND
  8
0
  0
POLYLINE
  8
1
 66
1
 10
0.0000
 20
0.0000
 30
0.0000
 40
0.2540
 41
0.2540
 70
0
  0
VERTEX
  8
1
 10
15.3630
 20
14.9860
 30
0.0000
  0
VERTEX
  8
1
 10
15.3788
 20
14.9860
 30
0.0000
  0
SEQEND
  8
0
  0
POLYLINE
  8
1
 66
1
 10
0.0000
 20
0.0000
 30
0.0000
 40
0.1270
 41
0.1270
 70
0
  0
VERTEX
  8
1
 10
15.3788
 20
14.9225
 30
0.0000
 42
1.0000
  0
VERTEX
  8
1
 10
15.3788
 20
15.0495
 30
0.0000
  0
SEQEND
  8
0
  0
POLYLINE
  8
1
 66
1
 10
0.0000
 20
0.0000
 30
0.0000
 40
0.1270
 41
0.1270
 70
0
  0
VERTEX
  8
1
 10
15.3630
 20
15.0495
 30
0.0000
 42
1.0000
  0
VERTEX
  8
1
 10
15.3630
 20
14.9225
 30
0.0000
  0
SEQEND
  8
0
  0
POLYLINE
  8
1
 66
1
 10
0.0000
 20
0.0000
 30
0.0000
 40
0.2540
 41
0.2540
 70
0
  0
VERTEX
  8
1
 10
16.5472
 20
14.9860
 30
0.0000
  0
VERTEX
  8
1
 10
18.1356
 20
14.9860
 30
0.0000
  0
SEQEND
  8
0
  0
POLYLINE
  8
1
 66
1
 10
0.0000
 20
0.0000
 30
0.0000
 40
0.1270
 41
0.1270
 70
0
  0
VERTEX
  8
1
 10
18.1356
 20
14.9225
 30
0.0000
 42
1.0000
  0
VERTEX
  8
1
 10
18.1356
 20
15.0495
 30
0.0000
  0
SEQEND
  8
0
  0
POLYLINE
  8
1
 66
1
 10
0.0000
 20
0.0000
 30
0.0000
 40
0.1270
 41
0.1270
 70
0
  0
VERTEX
  8
1
 10
16.5472
 20
15.0495
 30
0.0000
 42
1.0000
  0
VERTEX
  8
1
 10
16.5472
 20
14.9225
 30
0.0000
  0
SEQEND
  8
0
  0
POLYLINE
  8
1
 66
1
 10
0.0000
 20
0.0000
 30
0.0000
 40
0.2540
 41
0.2540
 70
0
  0
VERTEX
  8
1
 10
19.3040
 20
14.9860
 30
0.0000
  0
VERTEX
  8
1
 10
20.0788
 20
14.9860
 30
0.0000
  0
SEQEND
  8
0
  0
POLYLINE
  8
1
 66
1
 10
0.0000
 20
0.0000
 30
0.0000
 40
0.1270
 41
0.1270
 70
0
  0
VERTEX
  8
1
 10
20.0788
 20
14.9225
 30
0.0000
 42
1.0000
  0
VERTEX
  8
1
 10
20.0788
 20
15.0495
 30
0.0000
  0
SEQEND
  8
0
  0
POLYLINE
  8
1
 66
1
 10
0.0000
 20
0.0000
 30
0.0000
 40
0.1270
 41
0.1270
 70
0
  0
VERTEX
  8
1
 10
19.3040
 20
15.0495
 30
0.0000
 42
1.0000
  0
VERTEX
  8
1
 10
19.3040
 20
14.9225
 30
0.0000
  0
SEQEND
  8
0
  0
POLYLINE
  8
1
 66
1
 10
0.0000
 20
0.0000
 30
0.0000
 40
0.2540
 41
0.2540
 70
0
  0
VERTEX
  8
1
 10
15.3630
 20
15.2400
 30
0.0000
  0
VERTEX
  8
1
 10
15.3788
 20
15.2400
 30
0.0000
  0
SEQEND
  8
0
  0
POLYLINE
  8
1
 66
1
 10
0.0000
 20
0.0000
 30
0.0000
 40
0.1270
 41
0.1270
 70
0
  0
VERTEX
  8
1
 10
15.3788
 20
15.1765
 30
0.0000
 42
1.0000
  0
VERTEX
  8
1
 10
15.3788
 20
15.3035
 30
0.0000
  0
SEQEND
  8
0
  0
POLYLINE
  8
1
 66
1
 10
0.0000
 20
0.0000
 30
0.0000
 40
0.1270
 41
0.1270
 70
0
  0
VERTEX
  8
1
 10
15.3630
 20
15.3035
 30
0.0000
 42
1.0000
  0
VERTEX
  8
1
 10
15.3630
 20
15.1765
 30
0.0000
  0
SEQEND
  8
0
  0
POLYLINE
  8
1
 66
1
 10
0.0000
 20
0.0000
 30
0.0000
 40
0.2540
 41
0.2540
 70
0
  0
VERTEX
  8
1
 10
16.5472
 20
15.2400
 30
0.0000
  0
VERTEX
  8
1
 10
16.7183
 20
15.2400
 30
0.0000
  0
SEQEND
  8
0
  0
POLYLINE
  8
1
 66
1
 10
0.0000
 20
0.0000
 30
0.0000
 40
0.1270
 41
0.1270
 70
0
  0
VERTEX
  8
1
 10
16.7183
 20
15.1765
 30
0.0000
 42
1.0000
  0
VERTEX
  8
1
 10
16.7183
 20
15.3035
 30
0.0000
  0
SEQEND
  8
0
  0
POLYLINE
  8
1
 66
1
 10
0.0000
 20
0.0000
 30
0.0000
 40
0.1270
 41
0.1270
 70
0
  0
VERTEX
  8
1
 10
16.5472
 20
15.3035
 30
0.0000
 42
1.0000
  0
VERTEX
  8
1
 10
16.5472
 20
15.1765
 30
0.0000
  0
SEQEND
  8
0
  0
POLYLINE
  8
1
 66
1
 10
0.0000
 20
0.0000
 30
0.0000
 40
0.2540
 41
0.2540
 70
0
  0
VERTEX
  8
1
 10
19.3040
 20
15.2400
 30
0.0000
  0
VERTEX
  8
1
 10
20.0788
 20
15.2400
 30
0.0000
  0
SEQEND
  8
0
  0
POLYLINE
  8
1
 66
1
 10
0.0000
 20
0.0000
 30
0.0000
 40
0.1270
 41
0.1270
 70
0
  0
VERTEX
  8
1
 10
20.0788
 20
15.1765
 30
0.0000
 42
1.0000
  0
VERTEX
  8
1
 10
20.0788
 20
15.3035
 30
0.0000
  0
SEQEND
  8
0
  0
POLYLINE
  8
1
 66
1
 10
0.0000
 20
0.0000
 30
0.0000
 40
0.1270
 41
0.1270
 70
0
  0
VERTEX
  8
1
 10
19.3040
 20
15.3035
 30
0.0000
 42
1.0000
  0
VERTEX
  8
1
 10
19.3040
 20
15.1765
 30
0.0000
  0
SEQEND
  8
0
  0
POLYLINE
  8
1
 66
1
 10
0.0000
 20
0.0000
 30
0.0000
 40
0.2540
 41
0.2540
 70
0
  0
VERTEX
  8
1
 10
15.3630
 20
15.4940
 30
0.0000
  0
VERTEX
  8
1
 10
15.3788
 20
15.4940
 30
0.0000
  0
SEQEND
  8
0
  0
POLYLINE
  8
1
 66
1
 10
0.0000
 20
0.0000
 30
0.0000
 40
0.1270
 41
0.1270
 70
0
  0
VERTEX
  8
1
 10
15.3788
 20
15.4305
 30
0.0000
 42
1.0000
  0
VERTEX
  8
1
 10
15.3788
 20
15.5575
 30
0.0000
  0
SEQEND
  8
0
  0
POLYLINE
  8
1
 66
1
 10
0.0000
 20
0.0000
 30
0.0000
 40
0.1270
 41
0.1270
 70
0
  0
VERTEX
  8
1
 10
15.3630
 20
15.5575
 30
0.0000
 42
1.0000
  0
VERTEX
  8
1
 10
15.3630
 20
15.4305
 30
0.0000
  0
SEQEND
  8
0
  0
POLYLINE
  8
1
 66
1
 10
0.0000
 20
0.0000
 30
0.0000
 40
0.2540
 41
0.2540
 70
0
  0
VERTEX
  8
1
 10
15.3630
 20
15.7480
 30
0.0000
  0
VERTEX
  8
1
 10
15.3788
 20
15.7480
 30
0.0000
  0
SEQEND
  8
0
  0
POLYLINE
  8
1
 66
1
 10
0.0000
 20
0.0000
 30
0.0000
 40
0.1270
 41
0.1270
 70
0
  0
VERTEX
  8
1
 10
15.3788
 20
15.6845
 30
0.0000
 42
1.0000
  0
VERTEX
  8
1
 10
15.3788
 20
15.8115
 30
0.0000
  0
SEQEND
  8
0
  0
POLYLINE
  8
1
 66
1
 10
0.0000
 20
0.0000
 30
0.0000
 40
0.1270
 41
0.1270
 70
0
  0
VERTEX
  8
1
 10
15.3630
 20
15.8115
 30
0.0000
 42
1.0000
  0
VERTEX
  8
1
 10
15.3630
 20
15.6845
 30
0.0000
  0
SEQEND
  8
0
  0
POLYLINE
  8
1
 66
1
 10
0.0000
 20
0.0000
 30
0.0000
 40
0.2540
 41
0.2540
 70
0
  0
VERTEX
  8
1
 10
15.3630
 20
16.0020
 30
0.0000
  0
VERTEX
  8
1
 10
15.3788
 20
16.0020
 30
0.0000
  0
SEQEND
  8
0
  0
POLYLINE
  8
1
 66
1
 10
0.0000
 20
0.0000
 30
0.0000
 40
0.1270
 41
0.1270
 70
0
  0
VERTEX
  8
1
 10
15.3788
 20
15.9385
 30
0.0000
 42
1.0000
  0
VERTEX
  8
1
 10
15.3788
 20
16.0655
 30
0.0000
  0
SEQEND
  8
0
  0
POLYLINE
  8
1
 66
1
 10
0.0000
 20
0.0000
 30
0.0000
 40
0.1270
 41
0.1270
 70
0
  0
VERTEX
  8
1
 10
15.3630
 20
16.0655
 30
0.0000
 42
1.0000
  0
VERTEX
  8
1
 10
15.3630
 20
15.9385
 30
0.0000
  0
SEQEND
  8
0
  0
POLYLINE
  8
1
 66
1
 10
0.0000
 20
0.0000
 30
0.0000
 40
0.2540
 41
0.2540
 70
0
  0
VERTEX
  8
1
 10
15.3630
 20
16.2560
 30
0.0000
  0
VERTEX
  8
1
 10
15.3788
 20
16.2560
 30
0.0000
  0
SEQEND
  8
0
  0
POLYLINE
  8
1
 66
1
 10
0.0000
 20
0.0000
 30
0.0000
 40
0.1270
 41
0.1270
 70
0
  0
VERTEX
  8
1
 10
15.3788
 20
16.1925
 30
0.0000
 42
1.0000
  0
VERTEX
  8
1
 10
15.3788
 20
16.3195
 30
0.0000
  0
SEQEND
  8
0
  0
POLYLINE
  8
1
 66
1
 10
0.0000
 20
0.0000
 30
0.0000
 40
0.1270
 41
0.1270
 70
0
  0
VERTEX
  8
1
 10
15.3630
 20
16.3195
 30
0.0000
 42
1.0000
  0
VERTEX
  8
1
 10
15.3630
 20
16.1925
 30
0.0000
  0
SEQEND
  8
0
  0
POLYLINE
  8
1
 66
1
 10
0.0000
 20
0.0000
 30
0.0000
 40
0.2540
 41
0.2540
 70
0
  0
VERTEX
  8
1
 10
15.3630
 20
16.5100
 30
0.0000
  0
VERTEX
  8
1
 10
15.3788
 20
16.5100
 30
0.0000
  0
SEQEND
  8
0
  0
POLYLINE
  8
1
 66
1
 10
0.0000
 20
0.0000
 30
0.0000
 40
0.1270
 41
0.1270
 70
0
  0
VERTEX
  8
1
 10
15.3788
 20
16.4465
 30
0.0000
 42
1.0000
  0
VERTEX
  8
1
 10
15.3788
 20
16.5735
 30
0.0000
  0
SEQEND
  8
0
  0
POLYLINE
  8
1
 66
1
 10
0.0000
 20
0.0000
 30
0.0000
 40
0.1270
 41
0.1270
 70
0
  0
VERTEX
  8
1
 10
15.3630
 20
16.5735
 30
0.0000
 42
1.0000
  0
VERTEX
  8
1
 10
15.3630
 20
16.4465
 30
0.0000
  0
SEQEND
  8
0
  0
POLYLINE
  8
1
 66
1
 10
0.0000
 20
0.0000
 30
0.0000
 40
0.2540
 41
0.2540
 70
0
  0
VERTEX
  8
1
 10
15.3630
 20
16.7640
 30
0.0000
  0
VERTEX
  8
1
 10
15.3788
 20
16.7640
 30
0.0000
  0
SEQEND
  8
0
  0
POLYLINE
  8
1
 66
1
 10
0.0000
 20
0.0000
 30
0.0000
 40
0.1270
 41
0.1270
 70
0
  0
VERTEX
  8
1
 10
15.3788
 20
16.7005
 30
0.0000
 42
1.0000
  0
VERTEX
  8
1
 10
15.3788
 20
16.8275
 30
0.0000
  0
SEQEND
  8
0
  0
POLYLINE
  8
1
 66
1
 10
0.0000
 20
0.0000
 30
0.0000
 40
0.1270
 41
0.1270
 70
0
  0
VERTEX
  8
1
 10
15.3630
 20
16.8275
 30
0.0000
 42
1.0000
  0
VERTEX
  8
1
 10
15.3630
 20
16.7005
 30
0.0000
  0
SEQEND
  8
0
  0
POLYLINE
  8
1
 66
1
 10
0.0000
 20
0.0000
 30
0.0000
 40
0.2540
 41
0.2540
 70
0
  0
VERTEX
  8
1
 10
15.3630
 20
17.0180
 30
0.0000
  0
VERTEX
  8
1
 10
15.3788
 20
17.0180
 30
0.0000
  0
SEQEND
  8
0
  0
POLYLINE
  8
1
 66
1
 10
0.0000
 20
0.0000
 30
0.0000
 40
0.1270
 41
0.1270
 70
0
  0
VERTEX
  8
1
 10
15.3788
 20
16.9545
 30
0.0000
 42
1.0000
  0
VERTEX
  8
1
 10
15.3788
 20
17.0815
 30
0.0000
  0
SEQEND
  8
0
  0
POLYLINE
  8
1
 66
1
 10
0.0000
 20
0.0000
 30
0.0000
 40
0.1270
 41
0.1270
 70
0
  0
VERTEX
  8
1
 10
15.3630
 20
17.0815
 30
0.0000
 42
1.0000
  0
VERTEX
  8
1
 10
15.3630
 20
16.9545
 30
0.0000
  0
SEQEND
  8
0
  0
POLYLINE
  8
1
 66
1
 10
0.0000
 20
0.0000
 30
0.0000
 40
0.2540
 41
0.2540
 70
0
  0
VERTEX
  8
1
 10
15.3630
 20
17.2720
 30
0.0000
  0
VERTEX
  8
1
 10
15.3788
 20
17.2720
 30
0.0000
  0
SEQEND
  8
0
  0
POLYLINE
  8
1
 66
1
 10
0.0000
 20
0.0000
 30
0.0000
 40
0.1270
 41
0.1270
 70
0
  0
VERTEX
  8
1
 10
15.3788
 20
17.2085
 30
0.0000
 42
1.0000
  0
VERTEX
  8
1
 10
15.3788
 20
17.3355
 30
0.0000
  0
SEQEND
  8
0
  0
POLYLINE
  8
1
 66
1
 10
0.0000
 20
0.0000
 30
0.0000
 40
0.1270
 41
0.1270
 70
0
  0
VERTEX
  8
1
 10
15.3630
 20
17.3355
 30
0.0000
 42
1.0000
  0
VERTEX
  8
1
 10
15.3630
 20
17.2085
 30
0.0000
  0
SEQEND
  8
0
  0
POLYLINE
  8
1
 66
1
 10
0.0000
 20
0.0000
 30
0.0000
 40
0.2540
 41
0.2540
 70
0
  0
VERTEX
  8
1
 10
15.3630
 20
17.5260
 30
0.0000
  0
VERTEX
  8
1
 10
15.3788
 20
17.5260
 30
0.0000
  0
SEQEND
  8
0
  0
POLYLINE
  8
1
 66
1
 10
0.0000
 20
0.0000
 30
0.0000
 40
0.1270
 41
0.1270
 70
0
  0
VERTEX
  8
1
 10
15.3788
 20
17.4625
 30
0.0000
 42
1.0000
  0
VERTEX
  8
1
 10
15.3788
 20
17.5895
 30
0.0000
  0
SEQEND
  8
0
  0
POLYLINE
  8
1
 66
1
 10
0.0000
 20
0.0000
 30
0.0000
 40
0.1270
 41
0.1270
 70
0
  0
VERTEX
  8
1
 10
15.3630
 20
17.5895
 30
0.0000
 42
1.0000
  0
VERTEX
  8
1
 10
15.3630
 20
17.4625
 30
0.0000
  0
SEQEND
  8
0
  0
POLYLINE
  8
1
 66
1
 10
0.0000
 20
0.0000
 30
0.0000
 40
0.2540
 41
0.2540
 70
0
  0
VERTEX
  8
1
 10
15.3630
 20
17.7800
 30
0.0000
  0
VERTEX
  8
1
 10
15.3788
 20
17.7800
 30
0.0000
  0
SEQEND
  8
0
  0
POLYLINE
  8
1
 66
1
 10
0.0000
 20
0.0000
 30
0.0000
 40
0.1270
 41
0.1270
 70
0
  0
VERTEX
  8
1
 10
15.3788
 20
17.7165
 30
0.0000
 42
1.0000
  0
VERTEX
  8
1
 10
15.3788
 20
17.8435
 30
0.0000
  0
SEQEND
  8
0
  0
POLYLINE
  8
1
 66
1
 10
0.0000
 20
0.0000
 30
0.0000
 40
0.1270
 41
0.1270
 70
0
  0
VERTEX
  8
1
 10
15.3630
 20
17.8435
 30
0.0000
 42
1.0000
  0
VERTEX
  8
1
 10
15.3630
 20
17.7165
 30
0.0000
  0
SEQEND
  8
0
  0
POLYLINE
  8
1
 66
1
 10
0.0000
 20
0.0000
 30
0.0000
 40
0.2540
 41
0.2540
 70
0
  0
VERTEX
  8
1
 10
15.3630
 20
18.0340
 30
0.0000
  0
VERTEX
  8
1
 10
15.3788
 20
18.0340
 30
0.0000
  0
SEQEND
  8
0
  0
POLYLINE
  8
1
 66
1
 10
0.0000
 20
0.0000
 30
0.0000
 40
0.1270
 41
0.1270
 70
0
  0
VERTEX
  8
1
 10
15.3788
 20
17.9705
 30
0.0000
 42
1.0000
  0
VERTEX
  8
1
 10
15.3788
 20
18.0975
 30
0.0000
  0
SEQEND
  8
0
  0
POLYLINE
  8
1
 66
1
 10
0.0000
 20
0.0000
 30
0.0000
 40
0.1270
 41
0.1270
 70
0
  0
VERTEX
  8
1
 10
15.3630
 20
18.0975
 30
0.0000
 42
1.0000
  0
VERTEX
  8
1
 10
15.3630
 20
17.9705
 30
0.0000
  0
SEQEND
  8
0
  0
POLYLINE
  8
1
 66
1
 10
0.0000
 20
0.0000
 30
0.0000
 40
0.2540
 41
0.2540
 70
0
  0
VERTEX
  8
1
 10
15.3630
 20
18.2880
 30
0.0000
  0
VERTEX
  8
1
 10
15.5968
 20
18.2880
 30
0.0000
  0
SEQEND
  8
0
  0
POLYLINE
  8
1
 66
1
 10
0.0000
 20
0.0000
 30
0.0000
 40
0.1270
 41
0.1270
 70
0
  0
VERTEX
  8
1
 10
15.5968
 20
18.2245
 30
0.0000
 42
1.0000
  0
VERTEX
  8
1
 10
15.5968
 20
18.3515
 30
0.0000
  0
SEQEND
  8
0
  0
POLYLINE
  8
1
 66
1
 10
0.0000
 20
0.0000
 30
0.0000
 40
0.1270
 41
0.1270
 70
0
  0
VERTEX
  8
1
 10
15.3630
 20
18.3515
 30
0.0000
 42
1.0000
  0
VERTEX
  8
1
 10
15.3630
 20
18.2245
 30
0.0000
  0
SEQEND
  8
0
  0
POLYLINE
  8
1
 66
1
 10
0.0000
 20
0.0000
 30
0.0000
 40
0.2540
 41
0.2540
 70
0
  0
VERTEX
  8
1
 10
15.3630
 20
18.5420
 30
0.0000
  0
VERTEX
  8
1
 10
15.8508
 20
18.5420
 30
0.0000
  0
SEQEND
  8
0
  0
POLYLINE
  8
1
 66
1
 10
0.0000
 20
0.0000
 30
0.0000
 40
0.1270
 41
0.1270
 70
0
  0
VERTEX
  8
1
 10
15.8508
 20
18.4785
 30
0.0000
 42
1.0000
  0
VERTEX
  8
1
 10
15.8508
 20
18.6055
 30
0.0000
  0
SEQEND
  8
0
  0
POLYLINE
  8
1
 66
1
 10
0.0000
 20
0.0000
 30
0.0000
 40
0.1270
 41
0.1270
 70
0
  0
VERTEX
  8
1
 10
15.3630
 20
18.6055
 30
0.0000
 42
1.0000
  0
VERTEX
  8
1
 10
15.3630
 20
18.4785
 30
0.0000
  0
SEQEND
  8
0
  0
POLYLINE
  8
1
 66
1
 10
0.0000
 20
0.0000
 30
0.0000
 40
0.2540
 41
0.2540
 70
0
  0
VERTEX
  8
1
 10
15.3630
 20
18.7960
 30
0.0000
  0
VERTEX
  8
1
 10
18.5048
 20
18.7960
 30
0.0000
  0
SEQEND
  8
0
  0
POLYLINE
  8
1
 66
1
 10
0.0000
 20
0.0000
 30
0.0000
 40
0.1270
 41
0.1270
 70
0
  0
VERTEX
  8
1
 10
18.5048
 20
18.7325
 30
0.0000
 42
1.0000
  0
VERTEX
  8
1
 10
18.5048
 20
18.8595
 30
0.0000
  0
SEQEND
  8
0
  0
POLYLINE
  8
1
 66
1
 10
0.0000
 20
0.0000
 30
0.0000
 40
0.1270
 41
0.1270
 70
0
  0
VERTEX
  8
1
 10
15.3630
 20
18.8595
 30
0.0000
 42
1.0000
  0
VERTEX
  8
1
 10
15.3630
 20
18.7325
 30
0.0000
  0
SEQEND
  8
0
  0
POLYLINE
  8
1
 66
1
 10
0.0000
 20
0.0000
 30
0.0000
 40
0.2540
 41
0.2540
 70
0
  0
VERTEX
  8
1
 10
15.3630
 20
19.0500
 30
0.0000
  0
VERTEX
  8
1
 10
18.7588
 20
19.0500
 30
0.0000
  0
SEQEND
  8
0
  0
POLYLINE
  8
1
 66
1
 10
0.0000
 20
0.0000
 30
0.0000
 40
0.1270
 41
0.1270
 70
0
  0
VERTEX
  8
1
 10
18.7588
 20
18.9865
 30
0.0000
 42
1.0000
  0
VERTEX
  8
1
 10
18.7588
 20
19.1135
 30
0.0000
  0
SEQEND
  8
0
  0
POLYLINE
  8
1
 66
1
 10
0.0000
 20
0.0000
 30
0.0000
 40
0.1270
 41
0.1270
 70
0
  0
VERTEX
  8
1
 10
15.3630
 20
19.1135
 30
0.0000
 42
1.0000
  0
VERTEX
  8
1
 10
15.3630
 20
18.9865
 30
0.0000
  0
SEQEND
  8
0
  0
POLYLINE
  8
1
 66
1
 10
0.0000
 20
0.0000
 30
0.0000
 40
0.2540
 41
0.2540
 70
0
  0
VERTEX
  8
1
 10
15.3630
 20
19.3040
 30
0.0000
  0
VERTEX
  8
1
 10
18.8412
 20
19.3040
 30
0.0000
  0
SEQEND
  8
0
  0
POLYLINE
  8
1
 66
1
 10
0.0000
 20
0.0000
 30
0.0000
 40
0.1270
 41
0.1270
 70
0
  0
VERTEX
  8
1
 10
18.8412
 20
19.2405
 30
0.0000
 42
1.0000
  0
VERTEX
  8
1
 10
18.8412
 20
19.3675
 30
0.0000
  0
SEQEND
  8
0
  0
POLYLINE
  8
1
 66
1
 10
0.0000
 20
0.0000
 30
0.0000
 40
0.1270
 41
0.1270
 70
0
  0
VERTEX
  8
1
 10
15.3630
 20
19.3675
 30
0.0000
 42
1.0000
  0
VERTEX
  8
1
 10
15.3630
 20
19.2405
 30
0.0000
  0
SEQEND
  8
0
  0
POLYLINE
  8
1
 66
1
 10
0.0000
 20
0.0000
 30
0.0000
 40
0.2540
 41
0.2540
 70
0
  0
VERTEX
  8
1
 10
15.3630
 20
19.5580
 30
0.0000
  0
VERTEX
  8
1
 10
18.8412
 20
19.5580
 30
0.0000
  0
SEQEND
  8
0
  0
POLYLINE
  8
1
 66
1
 10
0.0000
 20
0.0000
 30
0.0000
 40
0.1270
 41
0.1270
 70
0
  0
VERTEX
  8
1
 10
18.8412
 20
19.4945
 30
0.0000
 42
1.0000
  0
VERTEX
  8
1
 10
18.8412
 20
19.6215
 30
0.0000
  0
SEQEND
  8
0
  0
POLYLINE
  8
1
 66
1
 10
0.0000
 20
0.0000
 30
0.0000
 40
0.1270
 41
0.1270
 70
0
  0
VERTEX
  8
1
 10
15.3630
 20
19.6215
 30
0.0000
 42
1.0000
  0
VERTEX
  8
1
 10
15.3630
 20
19.4945
 30
0.0000
  0
SEQEND
  8
0
  0
POLYLINE
  8
1
 66
1
 10
0.0000
 20
0.0000
 30
0.0000
 40
0.2540
 41
0.2540
 70
0
  0
VERTEX
  8
1
 10
15.3630
 20
19.8120
 30
0.0000
  0
VERTEX
  8
1
 10
18.8412
 20
19.8120
 30
0.0000
  0
SEQEND
  8
0
  0
POLYLINE
  8
1
 66
1
 10
0.0000
 20
0.0000
 30
0.0000
 40
0.1270
 41
0.1270
 70
0
  0
VERTEX
  8
1
 10
18.8412
 20
19.7485
 30
0.0000
 42
1.0000
  0
VERTEX
  8
1
 10
18.8412
 20
19.8755
 30
0.0000
  0
SEQEND
  8
0
  0
POLYLINE
  8
1
 66
1
 10
0.0000
 20
0.0000
 30
0.0000
 40
0.1270
 41
0.1270
 70
0
  0
VERTEX
  8
1
 10
15.3630
 20
19.8755
 30
0.0000
 42
1.0000
  0
VERTEX
  8
1
 10
15.3630
 20
19.7485
 30
0.0000
  0
SEQEND
  8
0
  0
POLYLINE
  8
1
 66
1
 10
0.0000
 20
0.0000
 30
0.0000
 40
0.2540
 41
0.2540
 70
0
  0
VERTEX
  8
1
 10
15.3630
 20
20.0660
 30
0.0000
  0
VERTEX
  8
1
 10
18.8412
 20
20.0660
 30
0.0000
  0
SEQEND
  8
0
  0
POLYLINE
  8
1
 66
1
 10
0.0000
 20
0.0000
 30
0.0000
 40
0.1270
 41
0.1270
 70
0
  0
VERTEX
  8
1
 10
18.8412
 20
20.0025
 30
0.0000
 42
1.0000
  0
VERTEX
  8
1
 10
18.8412
 20
20.1295
 30
0.0000
  0
SEQEND
  8
0
  0
POLYLINE
  8
1
 66
1
 10
0.0000
 20
0.0000
 30
0.0000
 40
0.1270
 41
0.1270
 70
0
  0
VERTEX
  8
1
 10
15.3630
 20
20.1295
 30
0.0000
 42
1.0000
  0
VERTEX
  8
1
 10
15.3630
 20
20.0025
 30
0.0000
  0
SEQEND
  8
0
  0
POLYLINE
  8
1
 66
1
 10
0.0000
 20
0.0000
 30
0.0000
 40
0.2540
 41
0.2540
 70
0
  0
VERTEX
  8
1
 10
15.3630
 20
20.3200
 30
0.0000
  0
VERTEX
  8
1
 10
18.8412
 20
20.3200
 30
0.0000
  0
SEQEND
  8
0
  0
POLYLINE
  8
1
 66
1
 10
0.0000
 20
0.0000
 30
0.0000
 40
0.1270
 41
0.1270
 70
0
  0
VERTEX
  8
1
 10
18.8412
 20
20.2565
 30
0.0000
 42
1.0000
  0
VERTEX
  8
1
 10
18.8412
 20
20.3835
 30
0.0000
  0
SEQEND
  8
0
  0
POLYLINE
  8
1
 66
1
 10
0.0000
 20
0.0000
 30
0.0000
 40
0.1270
 41
0.1270
 70
0
  0
VERTEX
  8
1
 10
15.3630
 20
20.3835
 30
0.0000
 42
1.0000
  0
VERTEX
  8
1
 10
15.3630
 20
20.2565
 30
0.0000
  0
SEQEND
  8
0
  0
POLYLINE
  8
1
 66
1
 10
0.0000
 20
0.0000
 30
0.0000
 40
0.2540
 41
0.2540
 70
0
  0
VERTEX
  8
1
 10
15.3630
 20
20.5740
 30
0.0000
  0
VERTEX
  8
1
 10
18.8673
 20
20.5740
 30
0.0000
  0
SEQEND
  8
0
  0
POLYLINE
  8
1
 66
1
 10
0.0000
 20
0.0000
 30
0.0000
 40
0.1270
 41
0.1270
 70
0
  0
VERTEX
  8
1
 10
18.8673
 20
20.5105
 30
0.0000
 42
1.0000
  0
VERTEX
  8
1
 10
18.8673
 20
20.6375
 30
0.0000
  0
SEQEND
  8
0
  0
POLYLINE
  8
1
 66
1
 10
0.0000
 20
0.0000
 30
0.0000
 40
0.1270
 41
0.1270
 70
0
  0
VERTEX
  8
1
 10
15.3630
 20
20.6375
 30
0.0000
 42
1.0000
  0
VERTEX
  8
1
 10
15.3630
 20
20.5105
 30
0.0000
  0
SEQEND
  8
0
  0
POLYLINE
  8
1
 66
1
 10
0.0000
 20
0.0000
 30
0.0000
 40
0.3048
 41
0.3048
 70
0
  0
VERTEX
  8
1
 10
19.2630
 20
13.4280
 30
0.0000
  0
VERTEX
  8
1
 10
19.2278
 20
13.4280
 30
0.0000
  0
SEQEND
  8
0
  0
POLYLINE
  8
1
 66
1
 10
0.0000
 20
0.0000
 30
0.0000
 40
0.1524
 41
0.1524
 70
0
  0
VERTEX
  8
1
 10
19.2278
 20
13.5042
 30
0.0000
 42
1.0000
  0
VERTEX
  8
1
 10
19.2278
 20
13.3518
 30
0.0000
  0
SEQEND
  8
0
  0
POLYLINE
  8
1
 66
1
 10
0.0000
 20
0.0000
 30
0.0000
 40
0.1524
 41
0.1524
 70
0
  0
VERTEX
  8
1
 10
19.2630
 20
13.3518
 30
0.0000
 42
1.0000
  0
VERTEX
  8
1
 10
19.2630
 20
13.5042
 30
0.0000
  0
SEQEND
  8
0
  0
POLYLINE
  8
1
 66
1
 10
0.0000
 20
0.0000
 30
0.0000
 40
0.3048
 41
0.3048
 70
0
  0
VERTEX
  8
1
 10
19.2278
 20
13.4280
 30
0.0000
  0
VERTEX
  8
1
 10
19.2278
 20
12.4968
 30
0.0000
  0
SEQEND
  8
0
  0
POLYLINE
  8
1
 66
1
 10
0.0000
 20
0.0000
 30
0.0000
 40
0.1524
 41
0.1524
 70
0
  0
VERTEX
  8
1
 10
19.1516
 20
12.4968
 30
0.0000
 42
1.0000
  0
VERTEX
  8
1
 10
19.3040
 20
12.4968
 30
0.0000
  0
SEQEND
  8
0
  0
POLYLINE
  8
1
 66
1
 10
0.0000
 20
0.0000
 30
0.0000
 40
0.1524
 41
0.1524
 70
0
  0
VERTEX
  8
1
 10
19.3040
 20
13.4280
 30
0.0000
 42
1.0000
  0
VERTEX
  8
1
 10
19.1516
 20
13.4280
 30
0.0000
  0
SEQEND
  8
0
  0
POLYLINE
  8
1
 66
1
 10
0.0000
 20
0.0000
 30
0.0000
 40
0.3048
 41
0.3048
 70
0
  0
VERTEX
  8
1
 10
18.2278
 20
15.2630
 30
0.0000
  0
VERTEX
  8
1
 10
18.2278
 20
13.6968
 30
0.0000
  0
SEQEND
  8
0
  0
POLYLINE
  8
1
 66
1
 10
0.0000
 20
0.0000
 30
0.0000
 40
0.1524
 41
0.1524
 70
0
  0
VERTEX
  8
1
 10
18.1516
 20
13.6968
 30
0.0000
 42
1.0000
  0
VERTEX
  8
1
 10
18.3040
 20
13.6968
 30
0.0000
  0
SEQEND
  8
0
  0
POLYLINE
  8
1
 66
1
 10
0.0000
 20
0.0000
 30
0.0000
 40
0.1524
 41
0.1524
 70
0
  0
VERTEX
  8
1
 10
18.3040
 20
15.2630
 30
0.0000
 42
1.0000
  0
VERTEX
  8
1
 10
18.1516
 20
15.2630
 30
0.0000
  0
SEQEND
  8
0
  0
POLYLINE
  8
1
 66
1
 10
0.0000
 20
0.0000
 30
0.0000
 40
0.3048
 41
0.3048
 70
0
  0
VERTEX
  8
1
 10
17.8330
 20
16.6360
 30
0.0000
  0
VERTEX
  8
1
 10
17.6302
 20
16.7360
 30
0.0000
  0
SEQEND
  8
0
  0
POLYLINE
  8
1
 66
1
 10
0.0000
 20
0.0000
 30
0.0000
 40
0.1524
 41
0.1524
 70
0
  0
VERTEX
  8
1
 10
17.6639
 20
16.8043
 30
0.0000
 42
1.0000
  0
VERTEX
  8
1
 10
17.5965
 20
16.6677
 30
0.0000
  0
SEQEND
  8
0
  0
POLYLINE
  8
1
 66
1
 10
0.0000
 20
0.0000
 30
0.0000
 40
0.1524
 41
0.1524
 70
0
  0
VERTEX
  8
1
 10
17.7993
 20
16.5677
 30
0.0000
 42
1.0000
  0
VERTEX
  8
1
 10
17.8667
 20
16.7043
 30
0.0000
  0
SEQEND
  8
0
  0
POLYLINE
  8
1
 66
1
 10
0.0000
 20
0.0000
 30
0.0000
 40
0.3048
 41
0.3048
 70
0
  0
VERTEX
  8
1
 10
17.6302
 20
16.7360
 30
0.0000
  0
VERTEX
  8
1
 10
18.7198
 20
15.5464
 30
0.0000
  0
SEQEND
  8
0
  0
POLYLINE
  8
1
 66
1
 10
0.0000
 20
0.0000
 30
0.0000
 40
0.1524
 41
0.1524
 70
0
  0
VERTEX
  8
1
 10
18.6636
 20
15.4949
 30
0.0000
 42
1.0000
  0
VERTEX
  8
1
 10
18.7760
 20
15.5979
 30
0.0000
  0
SEQEND
  8
0
  0
POLYLINE
  8
1
 66
1
 10
0.0000
 20
0.0000
 30
0.0000
 40
0.1524
 41
0.1524
 70
0
  0
VERTEX
  8
1
 10
17.6864
 20
16.7875
 30
0.0000
 42
1.0000
  0
VERTEX
  8
1
 10
17.5740
 20
16.6845
 30
0.0000
  0
SEQEND
  8
0
  0
POLYLINE
  8
1
 66
1
 10
0.0000
 20
0.0000
 30
0.0000
 40
0.3048
 41
0.3048
 70
0
  0
VERTEX
  8
1
 10
18.7198
 20
15.5464
 30
0.0000
  0
VERTEX
  8
1
 10
18.7198
 20
13.5497
 30
0.0000
  0
SEQEND
  8
0
  0
POLYLINE
  8
1
 66
1
 10
0.0000
 20
0.0000
 30
0.0000
 40
0.1524
 41
0.1524
 70
0
  0
VERTEX
  8
1
 10
18.6436
 20
13.5497
 30
0.0000
 42
1.0000
  0
VERTEX
  8
1
 10
18.7960
 20
13.5497
 30
0.0000
  0
SEQEND
  8
0
  0
POLYLINE
  8
1
 66
1
 10
0.0000
 20
0.0000
 30
0.0000
 40
0.1524
 41
0.1524
 70
0
  0
VERTEX
  8
1
 10
18.7960
 20
15.5464
 30
0.0000
 42
1.0000
  0
VERTEX
  8
1
 10
18.6436
 20
15.5464
 30
0.0000
  0
SEQEND
  8
0
  0
POLYLINE
  8
1
 66
1
 10
0.0000
 20
0.0000
 30
0.0000
 40
0.3048
 41
0.3048
 70
0
  0
VERTEX
  8
1
 10
18.7198
 20
13.5497
 30
0.0000
  0
VERTEX
  8
1
 10
18.7249
 20
13.5446
 30
0.0000
  0
SEQEND
  8
0
  0
POLYLINE
  8
1
 66
1
 10
0.0000
 20
0.0000
 30
0.0000
 40
0.1524
 41
0.1524
 70
0
  0
VERTEX
  8
1
 10
18.6711
 20
13.4907
 30
0.0000
 42
1.0000
  0
VERTEX
  8
1
 10
18.7788
 20
13.5985
 30
0.0000
  0
SEQEND
  8
0
  0
POLYLINE
  8
1
 66
1
 10
0.0000
 20
0.0000
 30
0.0000
 40
0.1524
 41
0.1524
 70
0
  0
VERTEX
  8
1
 10
18.7737
 20
13.6036
 30
0.0000
 42
1.0000
  0
VERTEX
  8
1
 10
18.6659
 20
13.4959
 30
0.0000
  0
SEQEND
  8
0
  0
POLYLINE
  8
1
 66
1
 10
0.0000
 20
0.0000
 30
0.0000
 40
0.2540
 41
0.2540
 70
0
  0
VERTEX
  8
1
 10
16.7956
 20
12.6500
 30
0.0000
  0
VERTEX
  8
1
 10
18.6444
 20
12.6500
 30
0.0000
  0
SEQEND
  8
0
  0
POLYLINE
  8
1
 66
1
 10
0.0000
 20
0.0000
 30
0.0000
 40
0.1270
 41
0.1270
 70
0
  0
VERTEX
  8
1
 10
18.6444
 20
12.5865
 30
0.0000
 42
1.0000
  0
VERTEX
  8
1
 10
18.6444
 20
12.7135
 30
0.0000
  0
SEQEND
  8
0
  0
POLYLINE
  8
1
 66
1
 10
0.0000
 20
0.0000
 30
0.0000
 40
0.1270
 41
0.1270
 70
0
  0
VERTEX
  8
1
 10
16.7956
 20
12.7135
 30
0.0000
 42
1.0000
  0
VERTEX
  8
1
 10
16.7956
 20
12.5865
 30
0.0000
  0
SEQEND
  8
0
  0
POLYLINE
  8
1
 66
1
 10
0.0000
 20
0.0000
 30
0.0000
 40
0.2540
 41
0.2540
 70
0
  0
VERTEX
  8
1
 10
18.6444
 20
12.6500
 30
0.0000
  0
VERTEX
  8
1
 10
18.7198
 20
12.7254
 30
0.0000
  0
SEQEND
  8
0
  0
POLYLINE
  8
1
 66
1
 10
0.0000
 20
0.0000
 30
0.0000
 40
0.1270
 41
0.1270
 70
0
  0
VERTEX
  8
1
 10
18.7647
 20
12.6805
 30
0.0000
 42
1.0000
  0
VERTEX
  8
1
 10
18.6749
 20
12.7703
 30
0.0000
  0
SEQEND
  8
0
  0
POLYLINE
  8
1
 66
1
 10
0.0000
 20
0.0000
 30
0.0000
 40
0.1270
 41
0.1270
 70
0
  0
VERTEX
  8
1
 10
18.5995
 20
12.6949
 30
0.0000
 42
1.0000
  0
VERTEX
  8
1
 10
18.6893
 20
12.6051
 30
0.0000
  0
SEQEND
  8
0
  0
POLYLINE
  8
1
 66
1
 10
0.0000
 20
0.0000
 30
0.0000
 40
0.2540
 41
0.2540
 70
0
  0
VERTEX
  8
1
 10
18.7198
 20
12.7254
 30
0.0000
  0
VERTEX
  8
1
 10
18.7198
 20
13.5395
 30
0.0000
  0
SEQEND
  8
0
  0
POLYLINE
  8
1
 66
1
 10
0.0000
 20
0.0000
 30
0.0000
 40
0.1270
 41
0.1270
 70
0
  0
VERTEX
  8
1
 10
18.7833
 20
13.5395
 30
0.0000
 42
1.0000
  0
VERTEX
  8
1
 10
18.6563
 20
13.5395
 30
0.0000
  0
SEQEND
  8
0
  0
POLYLINE
  8
1
 66
1
 10
0.0000
 20
0.0000
 30
0.0000
 40
0.1270
 41
0.1270
 70
0
  0
VERTEX
  8
1
 10
18.6563
 20
12.7254
 30
0.0000
 42
1.0000
  0
VERTEX
  8
1
 10
18.7833
 20
12.7254
 30
0.0000
  0
SEQEND
  8
0
  0
POLYLINE
  8
1
 66
1
 10
0.0000
 20
0.0000
 30
0.0000
 40
0.2540
 41
0.2540
 70
0
  0
VERTEX
  8
1
 10
18.7198
 20
13.5395
 30
0.0000
  0
VERTEX
  8
1
 10
18.7249
 20
13.5446
 30
0.0000
  0
SEQEND
  8
0
  0
POLYLINE
  8
1
 66
1
 10
0.0000
 20
0.0000
 30
0.0000
 40
0.1270
 41
0.1270
 70
0
  0
VERTEX
  8
1
 10
18.7698
 20
13.4997
 30
0.0000
 42
1.0000
  0
VERTEX
  8
1
 10
18.6800
 20
13.5895
 30
0.0000
  0
SEQEND
  8
0
  0
POLYLINE
  8
1
 66
1
 10
0.0000
 20
0.0000
 30
0.0000
 40
0.1270
 41
0.1270
 70
0
  0
VERTEX
  8
1
 10
18.6749
 20
13.5844
 30
0.0000
 42
1.0000
  0
VERTEX
  8
1
 10
18.7647
 20
13.4946
 30
0.0000
  0
SEQEND
  8
0
  0
POLYLINE
  8
1
 66
1
 10
0.0000
 20
0.0000
 30
0.0000
 40
0.3048
 41
0.3048
 70
0
  0
VERTEX
  8
1
 10
20.1140
 20
12.6543
 30
0.0000
  0
VERTEX
  8
1
 10
20.6893
 20
12.6543
 30
0.0000
  0
SEQEND
  8
0
  0
POLYLINE
  8
1
 66
1
 10
0.0000
 20
0.0000
 30
0.0000
 40
0.1524
 41
0.1524
 70
0
  0
VERTEX
  8
1
 10
20.6893
 20
12.5781
 30
0.0000
 42
1.0000
  0
VERTEX
  8
1
 10
20.6893
 20
12.7305
 30
0.0000
  0
SEQEND
  8
0
  0
POLYLINE
  8
1
 66
1
 10
0.0000
 20
0.0000
 30
0.0000
 40
0.1524
 41
0.1524
 70
0
  0
VERTEX
  8
1
 10
20.1140
 20
12.7305
 30
0.0000
 42
1.0000
  0
VERTEX
  8
1
 10
20.1140
 20
12.5781
 30
0.0000
  0
SEQEND
  8
0
  0
POLYLINE
  8
1
 66
1
 10
0.0000
 20
0.0000
 30
0.0000
 40
0.3048
 41
0.3048
 70
0
  0
VERTEX
  8
1
 10
20.6893
 20
12.6543
 30
0.0000
  0
VERTEX
  8
1
 10
20.9630
 20
12.9280
 30
0.0000
  0
SEQEND
  8
0
  0
POLYLINE
  8
1
 66
1
 10
0.0000
 20
0.0000
 30
0.0000
 40
0.1524
 41
0.1524
 70
0
  0
VERTEX
  8
1
 10
21.0169
 20
12.8741
 30
0.0000
 42
1.0000
  0
VERTEX
  8
1
 10
20.9091
 20
12.9819
 30
0.0000
  0
SEQEND
  8
0
  0
POLYLINE
  8
1
 66
1
 10
0.0000
 20
0.0000
 30
0.0000
 40
0.1524
 41
0.1524
 70
0
  0
VERTEX
  8
1
 10
20.6355
 20
12.7082
 30
0.0000
 42
1.0000
  0
VERTEX
  8
1
 10
20.7432
 20
12.6005
 30
0.0000
  0
SEQEND
  8
0
  0
POLYLINE
  8
1
 66
1
 10
0.0000
 20
0.0000
 30
0.0000
 40
0.3048
 41
0.3048
 70
0
  0
VERTEX
  8
1
 10
20.9630
 20
12.9280
 30
0.0000
  0
VERTEX
  8
1
 10
20.9630
 20
14.4280
 30
0.0000
  0
SEQEND
  8
0
  0
POLYLINE
  8
1
 66
1
 10
0.0000
 20
0.0000
 30
0.0000
 40
0.1524
 41
0.1524
 70
0
  0
VERTEX
  8
1
 10
21.0392
 20
14.4280
 30
0.0000
 42
1.0000
  0
VERTEX
  8
1
 10
20.8868
 20
14.4280
 30
0.0000
  0
SEQEND
  8
0
  0
POLYLINE
  8
1
 66
1
 10
0.0000
 20
0.0000
 30
0.0000
 40
0.1524
 41
0.1524
 70
0
  0
VERTEX
  8
1
 10
20.8868
 20
12.9280
 30
0.0000
 42
1.0000
  0
VERTEX
  8
1
 10
21.0392
 20
12.9280
 30
0.0000
  0
SEQEND
  8
0
  0
POLYLINE
  8
1
 66
1
 10
0.0000
 20
0.0000
 30
0.0000
 40
0.3048
 41
0.3048
 70
0
  0
VERTEX
  8
1
 10
20.2630
 20
16.6170
 30
0.0000
  0
VERTEX
  8
1
 10
20.1730
 20
16.7070
 30
0.0000
  0
SEQEND
  8
0
  0
POLYLINE
  8
1
 66
1
 10
0.0000
 20
0.0000
 30
0.0000
 40
0.1524
 41
0.1524
 70
0
  0
VERTEX
  8
1
 10
20.2269
 20
16.7609
 30
0.0000
 42
1.0000
  0
VERTEX
  8
1
 10
20.1191
 20
16.6531
 30
0.0000
  0
SEQEND
  8
0
  0
POLYLINE
  8
1
 66
1
 10
0.0000
 20
0.0000
 30
0.0000
 40
0.1524
 41
0.1524
 70
0
  0
VERTEX
  8
1
 10
20.2091
 20
16.5631
 30
0.0000
 42
1.0000
  0
VERTEX
  8
1
 10
20.3169
 20
16.6709
 30
0.0000
  0
SEQEND
  8
0
  0
POLYLINE
  8
1
 66
1
 10
0.0000
 20
0.0000
 30
0.0000
 40
0.3048
 41
0.3048
 70
0
  0
VERTEX
  8
1
 10
20.9630
 20
14.4280
 30
0.0000
  0
VERTEX
  8
1
 10
20.6630
 20
14.7280
 30
0.0000
  0
SEQEND
  8
0
  0
POLYLINE
  8
1
 66
1
 10
0.0000
 20
0.0000
 30
0.0000
 40
0.1524
 41
0.1524
 70
0
  0
VERTEX
  8
1
 10
20.7169
 20
14.7819
 30
0.0000
 42
1.0000
  0
VERTEX
  8
1
 10
20.6091
 20
14.6741
 30
0.0000
  0
SEQEND
  8
0
  0
POLYLINE
  8
1
 66
1
 10
0.0000
 20
0.0000
 30
0.0000
 40
0.1524
 41
0.1524
 70
0
  0
VERTEX
  8
1
 10
20.9091
 20
14.3741
 30
0.0000
 42
1.0000
  0
VERTEX
  8
1
 10
21.0169
 20
14.4819
 30
0.0000
  0
SEQEND
  8
0
  0
POLYLINE
  8
1
 66
1
 10
0.0000
 20
0.0000
 30
0.0000
 40
0.3048
 41
0.3048
 70
0
  0
VERTEX
  8
1
 10
20.6630
 20
14.7280
 30
0.0000
  0
VERTEX
  8
1
 10
20.6630
 20
16.7280
 30
0.0000
  0
SEQEND
  8
0
  0
POLYLINE
  8
1
 66
1
 10
0.0000
 20
0.0000
 30
0.0000
 40
0.1524
 41
0.1524
 70
0
  0
VERTEX
  8
1
 10
20.7392
 20
16.7280
 30
0.0000
 42
1.0000
  0
VERTEX
  8
1
 10
20.5868
 20
16.7280
 30
0.0000
  0
SEQEND
  8
0
  0
POLYLINE
  8
1
 66
1
 10
0.0000
 20
0.0000
 30
0.0000
 40
0.1524
 41
0.1524
 70
0
  0
VERTEX
  8
1
 10
20.5868
 20
14.7280
 30
0.0000
 42
1.0000
  0
VERTEX
  8
1
 10
20.7392
 20
14.7280
 30
0.0000
  0
SEQEND
  8
0
  0
POLYLINE
  8
1
 66
1
 10
0.0000
 20
0.0000
 30
0.0000
 40
0.3048
 41
0.3048
 70
0
  0
VERTEX
  8
1
 10
20.6630
 20
16.7280
 30
0.0000
  0
VERTEX
  8
1
 10
20.6420
 20
16.7070
 30
0.0000
  0
SEQEND
  8
0
  0
POLYLINE
  8
1
 66
1
 10
0.0000
 20
0.0000
 30
0.0000
 40
0.1524
 41
0.1524
 70
0
  0
VERTEX
  8
1
 10
20.5881
 20
16.7609
 30
0.0000
 42
1.0000
  0
VERTEX
  8
1
 10
20.6959
 20
16.6531
 30
0.0000
  0
SEQEND
  8
0
  0
POLYLINE
  8
1
 66
1
 10
0.0000
 20
0.0000
 30
0.0000
 40
0.1524
 41
0.1524
 70
0
  0
VERTEX
  8
1
 10
20.7169
 20
16.6741
 30
0.0000
 42
1.0000
  0
VERTEX
  8
1
 10
20.6091
 20
16.7819
 30
0.0000
  0
SEQEND
  8
0
  0
POLYLINE
  8
1
 66
1
 10
0.0000
 20
0.0000
 30
0.0000
 40
0.3048
 41
0.3048
 70
0
  0
VERTEX
  8
1
 10
20.6420
 20
16.7070
 30
0.0000
  0
VERTEX
  8
1
 10
20.1730
 20
16.7070
 30
0.0000
  0
SEQEND
  8
0
  0
POLYLINE
  8
1
 66
1
 10
0.0000
 20
0.0000
 30
0.0000
 40
0.1524
 41
0.1524
 70
0
  0
VERTEX
  8
1
 10
20.1730
 20
16.7832
 30
0.0000
 42
1.0000
  0
VERTEX
  8
1
 10
20.1730
 20
16.6308
 30
0.0000
  0
SEQEND
  8
0
  0
POLYLINE
  8
1
 66
1
 10
0.0000
 20
0.0000
 30
0.0000
 40
0.1524
 41
0.1524
 70
0
  0
VERTEX
  8
1
 10
20.6420
 20
16.6308
 30
0.0000
 42
1.0000
  0
VERTEX
  8
1
 10
20.6420
 20
16.7832
 30
0.0000
  0
SEQEND
  8
0
  0
POLYLINE
  8
1
 66
1
 10
0.0000
 20
0.0000
 30
0.0000
 40
0.3048
 41
0.3048
 70
0
  0
VERTEX
  8
1
 10
20.1730
 20
19.4690
 30
0.0000
  0
VERTEX
  8
1
 10
19.8730
 20
19.3380
 30
0.0000
  0
SEQEND
  8
0
  0
POLYLINE
  8
1
 66
1
 10
0.0000
 20
0.0000
 30
0.0000
 40
0.1524
 41
0.1524
 70
0
  0
VERTEX
  8
1
 10
19.8425
 20
19.4078
 30
0.0000
 42
1.0000
  0
VERTEX
  8
1
 10
19.9035
 20
19.2682
 30
0.0000
  0
SEQEND
  8
0
  0
POLYLINE
  8
1
 66
1
 10
0.0000
 20
0.0000
 30
0.0000
 40
0.1524
 41
0.1524
 70
0
  0
VERTEX
  8
1
 10
20.2035
 20
19.3992
 30
0.0000
 42
1.0000
  0
VERTEX
  8
1
 10
20.1425
 20
19.5388
 30
0.0000
  0
SEQEND
  8
0
  0
POLYLINE
  8
1
 66
1
 10
0.0000
 20
0.0000
 30
0.0000
 40
0.3048
 41
0.3048
 70
0
  0
VERTEX
  8
1
 10
19.8730
 20
19.3380
 30
0.0000
  0
VERTEX
  8
1
 10
18.6630
 20
18.1280
 30
0.0000
  0
SEQEND
  8
0
  0
POLYLINE
  8
1
 66
1
 10
0.0000
 20
0.0000
 30
0.0000
 40
0.1524
 41
0.1524
 70
0
  0
VERTEX
  8
1
 10
18.6091
 20
18.1819
 30
0.0000
 42
1.0000
  0
VERTEX
  8
1
 10
18.7169
 20
18.0741
 30
0.0000
  0
SEQEND
  8
0
  0
POLYLINE
  8
1
 66
1
 10
0.0000
 20
0.0000
 30
0.0000
 40
0.1524
 41
0.1524
 70
0
  0
VERTEX
  8
1
 10
19.9269
 20
19.2841
 30
0.0000
 42
1.0000
  0
VERTEX
  8
1
 10
19.8191
 20
19.3919
 30
0.0000
  0
SEQEND
  8
0
  0
POLYLINE
  8
1
 66
1
 10
0.0000
 20
0.0000
 30
0.0000
 40
0.3048
 41
0.3048
 70
0
  0
VERTEX
  8
1
 10
18.6630
 20
18.1280
 30
0.0000
  0
VERTEX
  8
1
 10
16.2630
 20
18.1280
 30
0.0000
  0
SEQEND
  8
0
  0
POLYLINE
  8
1
 66
1
 10
0.0000
 20
0.0000
 30
0.0000
 40
0.1524
 41
0.1524
 70
0
  0
VERTEX
  8
1
 10
16.2630
 20
18.2042
 30
0.0000
 42
1.0000
  0
VERTEX
  8
1
 10
16.2630
 20
18.0518
 30
0.0000
  0
SEQEND
  8
0
  0
POLYLINE
  8
1
 66
1
 10
0.0000
 20
0.0000
 30
0.0000
 40
0.1524
 41
0.1524
 70
0
  0
VERTEX
  8
1
 10
18.6630
 20
18.0518
 30
0.0000
 42
1.0000
  0
VERTEX
  8
1
 10
18.6630
 20
18.2042
 30
0.0000
  0
SEQEND
  8
0
  0
POLYLINE
  8
1
 66
1
 10
0.0000
 20
0.0000
 30
0.0000
 40
0.3048
 41
0.3048
 70
0
  0
VERTEX
  8
1
 10
16.2630
 20
18.1280
 30
0.0000
  0
VERTEX
  8
1
 10
15.9630
 20
17.8280
 30
0.0000
  0
SEQEND
  8
0
  0
POLYLINE
  8
1
 66
1
 10
0.0000
 20
0.0000
 30
0.0000
 40
0.1524
 41
0.1524
 70
0
  0
VERTEX
  8
1
 10
15.9091
 20
17.8819
 30
0.0000
 42
1.0000
  0
VERTEX
  8
1
 10
16.0169
 20
17.7741
 30
0.0000
  0
SEQEND
  8
0
  0
POLYLINE
  8
1
 66
1
 10
0.0000
 20
0.0000
 30
0.0000
 40
0.1524
 41
0.1524
 70
0
  0
VERTEX
  8
1
 10
16.3169
 20
18.0741
 30
0.0000
 42
1.0000
  0
VERTEX
  8
1
 10
16.2091
 20
18.1819
 30
0.0000
  0
SEQEND
  8
0
  0
POLYLINE
  8
1
 66
1
 10
0.0000
 20
0.0000
 30
0.0000
 40
0.3048
 41
0.3048
 70
0
  0
VERTEX
  8
1
 10
15.9630
 20
17.8280
 30
0.0000
  0
VERTEX
  8
1
 10
15.9630
 20
14.0280
 30
0.0000
  0
SEQEND
  8
0
  0
POLYLINE
  8
1
 66
1
 10
0.0000
 20
0.0000
 30
0.0000
 40
0.1524
 41
0.1524
 70
0
  0
VERTEX
  8
1
 10
15.8868
 20
14.0280
 30
0.0000
 42
1.0000
  0
VERTEX
  8
1
 10
16.0392
 20
14.0280
 30
0.0000
  0
SEQEND
  8
0
  0
POLYLINE
  8
1
 66
1
 10
0.0000
 20
0.0000
 30
0.0000
 40
0.1524
 41
0.1524
 70
0
  0
VERTEX
  8
1
 10
16.0392
 20
17.8280
 30
0.0000
 42
1.0000
  0
VERTEX
  8
1
 10
15.8868
 20
17.8280
 30
0.0000
  0
SEQEND
  8
0
  0
POLYLINE
  8
1
 66
1
 10
0.0000
 20
0.0000
 30
0.0000
 40
0.3048
 41
0.3048
 70
0
  0
VERTEX
  8
1
 10
15.9630
 20
14.0280
 30
0.0000
  0
VERTEX
  8
1
 10
16.3630
 20
13.6280
 30
0.0000
  0
SEQEND
  8
0
  0
POLYLINE
  8
1
 66
1
 10
0.0000
 20
0.0000
 30
0.0000
 40
0.1524
 41
0.1524
 70
0
  0
VERTEX
  8
1
 10
16.3091
 20
13.5741
 30
0.0000
 42
1.0000
  0
VERTEX
  8
1
 10
16.4169
 20
13.6819
 30
0.0000
  0
SEQEND
  8
0
  0
POLYLINE
  8
1
 66
1
 10
0.0000
 20
0.0000
 30
0.0000
 40
0.1524
 41
0.1524
 70
0
  0
VERTEX
  8
1
 10
16.0169
 20
14.0819
 30
0.0000
 42
1.0000
  0
VERTEX
  8
1
 10
15.9091
 20
13.9741
 30
0.0000
  0
SEQEND
  8
0
  0
POLYLINE
  8
1
 66
1
 10
0.0000
 20
0.0000
 30
0.0000
 40
0.3048
 41
0.3048
 70
0
  0
VERTEX
  8
1
 10
16.3630
 20
13.6280
 30
0.0000
  0
VERTEX
  8
1
 10
17.6415
 20
13.6280
 30
0.0000
  0
SEQEND
  8
0
  0
POLYLINE
  8
1
 66
1
 10
0.0000
 20
0.0000
 30
0.0000
 40
0.1524
 41
0.1524
 70
0
  0
VERTEX
  8
1
 10
17.6415
 20
13.5518
 30
0.0000
 42
1.0000
  0
VERTEX
  8
1
 10
17.6415
 20
13.7042
 30
0.0000
  0
SEQEND
  8
0
  0
POLYLINE
  8
1
 66
1
 10
0.0000
 20
0.0000
 30
0.0000
 40
0.1524
 41
0.1524
 70
0
  0
VERTEX
  8
1
 10
16.3630
 20
13.7042
 30
0.0000
 42
1.0000
  0
VERTEX
  8
1
 10
16.3630
 20
13.5518
 30
0.0000
  0
SEQEND
  8
0
  0
POLYLINE
  8
1
 66
1
 10
0.0000
 20
0.0000
 30
0.0000
 40
0.3048
 41
0.3048
 70
0
  0
VERTEX
  8
1
 10
17.6415
 20
13.6280
 30
0.0000
  0
VERTEX
  8
1
 10
17.7249
 20
13.5446
 30
0.0000
  0
SEQEND
  8
0
  0
POLYLINE
  8
1
 66
1
 10
0.0000
 20
0.0000
 30
0.0000
 40
0.1524
 41
0.1524
 70
0
  0
VERTEX
  8
1
 10
17.6711
 20
13.4907
 30
0.0000
 42
1.0000
  0
VERTEX
  8
1
 10
17.7788
 20
13.5985
 30
0.0000
  0
SEQEND
  8
0
  0
POLYLINE
  8
1
 66
1
 10
0.0000
 20
0.0000
 30
0.0000
 40
0.1524
 41
0.1524
 70
0
  0
VERTEX
  8
1
 10
17.6954
 20
13.6819
 30
0.0000
 42
1.0000
  0
VERTEX
  8
1
 10
17.5877
 20
13.5741
 30
0.0000
  0
SEQEND
  8
0
  0
POLYLINE
  8
1
 66
1
 10
0.0000
 20
0.0000
 30
0.0000
 40
0.3048
 41
0.3048
 70
0
  0
VERTEX
  8
1
 10
18.2220
 20
10.2365
 30
0.0000
  0
VERTEX
  8
1
 10
18.2220
 20
8.7690
 30
0.0000
  0
SEQEND
  8
0
  0
POLYLINE
  8
1
 66
1
 10
0.0000
 20
0.0000
 30
0.0000
 40
0.1524
 41
0.1524
 70
0
  0
VERTEX
  8
1
 10
18.1458
 20
8.7690
 30
0.0000
 42
1.0000
  0
VERTEX
  8
1
 10
18.2982
 20
8.7690
 30
0.0000
  0
SEQEND
  8
0
  0
POLYLINE
  8
1
 66
1
 10
0.0000
 20
0.0000
 30
0.0000
 40
0.1524
 41
0.1524
 70
0
  0
VERTEX
  8
1
 10
18.2982
 20
10.2365
 30
0.0000
 42
1.0000
  0
VERTEX
  8
1
 10
18.1458
 20
10.2365
 30
0.0000
  0
SEQEND
  8
0
  0
POLYLINE
  8
1
 66
1
 10
0.0000
 20
0.0000
 30
0.0000
 40
0.3048
 41
0.3048
 70
0
  0
VERTEX
  8
1
 10
18.2220
 20
8.7690
 30
0.0000
  0
VERTEX
  8
1
 10
20.5630
 20
6.4280
 30
0.0000
  0
SEQEND
  8
0
  0
POLYLINE
  8
1
 66
1
 10
0.0000
 20
0.0000
 30
0.0000
 40
0.1524
 41
0.1524
 70
0
  0
VERTEX
  8
1
 10
20.5091
 20
6.3741
 30
0.0000
 42
1.0000
  0
VERTEX
  8
1
 10
20.6169
 20
6.4819
 30
0.0000
  0
SEQEND
  8
0
  0
POLYLINE
  8
1
 66
1
 10
0.0000
 20
0.0000
 30
0.0000
 40
0.1524
 41
0.1524
 70
0
  0
VERTEX
  8
1
 10
18.2759
 20
8.8229
 30
0.0000
 42
1.0000
  0
VERTEX
  8
1
 10
18.1681
 20
8.7151
 30
0.0000
  0
SEQEND
  8
0
  0
POLYLINE
  8
1
 66
1
 10
0.0000
 20
0.0000
 30
0.0000
 40
0.3048
 41
0.3048
 70
0
  0
VERTEX
  8
1
 10
20.5630
 20
6.4280
 30
0.0000
  0
VERTEX
  8
1
 10
20.5630
 20
4.1740
 30
0.0000
  0
SEQEND
  8
0
  0
POLYLINE
  8
1
 66
1
 10
0.0000
 20
0.0000
 30
0.0000
 40
0.1524
 41
0.1524
 70
0
  0
VERTEX
  8
1
 10
20.4868
 20
4.1740
 30
0.0000
 42
1.0000
  0
VERTEX
  8
1
 10
20.6392
 20
4.1740
 30
0.0000
  0
SEQEND
  8
0
  0
POLYLINE
  8
1
 66
1
 10
0.0000
 20
0.0000
 30
0.0000
 40
0.1524
 41
0.1524
 70
0
  0
VERTEX
  8
1
 10
20.6392
 20
6.4280
 30
0.0000
 42
1.0000
  0
VERTEX
  8
1
 10
20.4868
 20
6.4280
 30
0.0000
  0
SEQEND
  8
0
  0
POLYLINE
  8
1
 66
1
 10
0.0000
 20
0.0000
 30
0.0000
 40
0.3048
 41
0.3048
 70
0
  0
VERTEX
  8
1
 10
20.5630
 20
4.1740
 30
0.0000
  0
VERTEX
  8
1
 10
20.6210
 20
4.1160
 30
0.0000
  0
SEQEND
  8
0
  0
POLYLINE
  8
1
 66
1
 10
0.0000
 20
0.0000
 30
0.0000
 40
0.1524
 41
0.1524
 70
0
  0
VERTEX
  8
1
 10
20.5671
 20
4.0621
 30
0.0000
 42
1.0000
  0
VERTEX
  8
1
 10
20.6749
 20
4.1699
 30
0.0000
  0
SEQEND
  8
0
  0
POLYLINE
  8
1
 66
1
 10
0.0000
 20
0.0000
 30
0.0000
 40
0.1524
 41
0.1524
 70
0
  0
VERTEX
  8
1
 10
20.6169
 20
4.2279
 30
0.0000
 42
1.0000
  0
VERTEX
  8
1
 10
20.5091
 20
4.1201
 30
0.0000
  0
SEQEND
  8
0
  0
POLYLINE
  8
1
 66
1
 10
0.0000
 20
0.0000
 30
0.0000
 40
0.2540
 41
0.2540
 70
0
  0
VERTEX
  8
1
 10
16.7956
 20
12.1500
 30
0.0000
  0
VERTEX
  8
1
 10
17.5410
 20
12.1500
 30
0.0000
  0
SEQEND
  8
0
  0
POLYLINE
  8
1
 66
1
 10
0.0000
 20
0.0000
 30
0.0000
 40
0.1270
 41
0.1270
 70
0
  0
VERTEX
  8
1
 10
17.5410
 20
12.0865
 30
0.0000
 42
1.0000
  0
VERTEX
  8
1
 10
17.5410
 20
12.2135
 30
0.0000
  0
SEQEND
  8
0
  0
POLYLINE
  8
1
 66
1
 10
0.0000
 20
0.0000
 30
0.0000
 40
0.1270
 41
0.1270
 70
0
  0
VERTEX
  8
1
 10
16.7956
 20
12.2135
 30
0.0000
 42
1.0000
  0
VERTEX
  8
1
 10
16.7956
 20
12.0865
 30
0.0000
  0
SEQEND
  8
0
  0
POLYLINE
  8
1
 66
1
 10
0.0000
 20
0.0000
 30
0.0000
 40
0.2540
 41
0.2540
 70
0
  0
VERTEX
  8
1
 10
17.5410
 20
12.1500
 30
0.0000
  0
VERTEX
  8
1
 10
18.2220
 20
11.4690
 30
0.0000
  0
SEQEND
  8
0
  0
POLYLINE
  8
1
 66
1
 10
0.0000
 20
0.0000
 30
0.0000
 40
0.1270
 41
0.1270
 70
0
  0
VERTEX
  8
1
 10
18.1771
 20
11.4241
 30
0.0000
 42
1.0000
  0
VERTEX
  8
1
 10
18.2669
 20
11.5139
 30
0.0000
  0
SEQEND
  8
0
  0
POLYLINE
  8
1
 66
1
 10
0.0000
 20
0.0000
 30
0.0000
 40
0.1270
 41
0.1270
 70
0
  0
VERTEX
  8
1
 10
17.5859
 20
12.1949
 30
0.0000
 42
1.0000
  0
VERTEX
  8
1
 10
17.4961
 20
12.1051
 30
0.0000
  0
SEQEND
  8
0
  0
POLYLINE
  8
1
 66
1
 10
0.0000
 20
0.0000
 30
0.0000
 40
0.2540
 41
0.2540
 70
0
  0
VERTEX
  8
1
 10
18.2220
 20
11.4690
 30
0.0000
  0
VERTEX
  8
1
 10
18.2220
 20
10.2365
 30
0.0000
  0
SEQEND
  8
0
  0
POLYLINE
  8
1
 66
1
 10
0.0000
 20
0.0000
 30
0.0000
 40
0.1270
 41
0.1270
 70
0
  0
VERTEX
  8
1
 10
18.1585
 20
10.2365
 30
0.0000
 42
1.0000
  0
VERTEX
  8
1
 10
18.2855
 20
10.2365
 30
0.0000
  0
SEQEND
  8
0
  0
POLYLINE
  8
1
 66
1
 10
0.0000
 20
0.0000
 30
0.0000
 40
0.1270
 41
0.1270
 70
0
  0
VERTEX
  8
1
 10
18.2855
 20
11.4690
 30
0.0000
 42
1.0000
  0
VERTEX
  8
1
 10
18.1585
 20
11.4690
 30
0.0000
  0
SEQEND
  8
0
  0
POLYLINE
  8
1
 66
1
 10
0.0000
 20
0.0000
 30
0.0000
 40
0.3048
 41
0.3048
 70
0
  0
VERTEX
  8
1
 10
17.7220
 20
10.2365
 30
0.0000
  0
VERTEX
  8
1
 10
17.7220
 20
7.8690
 30
0.0000
  0
SEQEND
  8
0
  0
POLYLINE
  8
1
 66
1
 10
0.0000
 20
0.0000
 30
0.0000
 40
0.1524
 41
0.1524
 70
0
  0
VERTEX
  8
1
 10
17.6458
 20
7.8690
 30
0.0000
 42
1.0000
  0
VERTEX
  8
1
 10
17.7982
 20
7.8690
 30
0.0000
  0
SEQEND
  8
0
  0
POLYLINE
  8
1
 66
1
 10
0.0000
 20
0.0000
 30
0.0000
 40
0.1524
 41
0.1524
 70
0
  0
VERTEX
  8
1
 10
17.7982
 20
10.2365
 30
0.0000
 42
1.0000
  0
VERTEX
  8
1
 10
17.6458
 20
10.2365
 30
0.0000
  0
SEQEND
  8
0
  0
POLYLINE
  8
1
 66
1
 10
0.0000
 20
0.0000
 30
0.0000
 40
0.3048
 41
0.3048
 70
0
  0
VERTEX
  8
1
 10
17.7220
 20
7.8690
 30
0.0000
  0
VERTEX
  8
1
 10
19.0630
 20
6.5280
 30
0.0000
  0
SEQEND
  8
0
  0
POLYLINE
  8
1
 66
1
 10
0.0000
 20
0.0000
 30
0.0000
 40
0.1524
 41
0.1524
 70
0
  0
VERTEX
  8
1
 10
19.0091
 20
6.4741
 30
0.0000
 42
1.0000
  0
VERTEX
  8
1
 10
19.1169
 20
6.5819
 30
0.0000
  0
SEQEND
  8
0
  0
POLYLINE
  8
1
 66
1
 10
0.0000
 20
0.0000
 30
0.0000
 40
0.1524
 41
0.1524
 70
0
  0
VERTEX
  8
1
 10
17.7759
 20
7.9229
 30
0.0000
 42
1.0000
  0
VERTEX
  8
1
 10
17.6681
 20
7.8151
 30
0.0000
  0
SEQEND
  8
0
  0
POLYLINE
  8
1
 66
1
 10
0.0000
 20
0.0000
 30
0.0000
 40
0.3048
 41
0.3048
 70
0
  0
VERTEX
  8
1
 10
19.0630
 20
6.5280
 30
0.0000
  0
VERTEX
  8
1
 10
19.0630
 20
4.2014
 30
0.0000
  0
SEQEND
  8
0
  0
POLYLINE
  8
1
 66
1
 10
0.0000
 20
0.0000
 30
0.0000
 40
0.1524
 41
0.1524
 70
0
  0
VERTEX
  8
1
 10
18.9868
 20
4.2014
 30
0.0000
 42
1.0000
  0
VERTEX
  8
1
 10
19.1392
 20
4.2014
 30
0.0000
  0
SEQEND
  8
0
  0
POLYLINE
  8
1
 66
1
 10
0.0000
 20
0.0000
 30
0.0000
 40
0.1524
 41
0.1524
 70
0
  0
VERTEX
  8
1
 10
19.1392
 20
6.5280
 30
0.0000
 42
1.0000
  0
VERTEX
  8
1
 10
18.9868
 20
6.5280
 30
0.0000
  0
SEQEND
  8
0
  0
POLYLINE
  8
1
 66
1
 10
0.0000
 20
0.0000
 30
0.0000
 40
0.3048
 41
0.3048
 70
0
  0
VERTEX
  8
1
 10
19.0630
 20
4.2014
 30
0.0000
  0
VERTEX
  8
1
 10
19.1416
 20
4.1228
 30
0.0000
  0
SEQEND
  8
0
  0
POLYLINE
  8
1
 66
1
 10
0.0000
 20
0.0000
 30
0.0000
 40
0.1524
 41
0.1524
 70
0
  0
VERTEX
  8
1
 10
19.0877
 20
4.0689
 30
0.0000
 42
1.0000
  0
VERTEX
  8
1
 10
19.1955
 20
4.1767
 30
0.0000
  0
SEQEND
  8
0
  0
POLYLINE
  8
1
 66
1
 10
0.0000
 20
0.0000
 30
0.0000
 40
0.1524
 41
0.1524
 70
0
  0
VERTEX
  8
1
 10
19.1169
 20
4.2553
 30
0.0000
 42
1.0000
  0
VERTEX
  8
1
 10
19.0091
 20
4.1475
 30
0.0000
  0
SEQEND
  8
0
  0
POLYLINE
  8
1
 66
1
 10
0.0000
 20
0.0000
 30
0.0000
 40
0.3048
 41
0.3048
 70
0
  0
VERTEX
  8
1
 10
17.6498
 20
4.1288
 30
0.0000
  0
VERTEX
  8
1
 10
17.6498
 20
6.6412
 30
0.0000
  0
SEQEND
  8
0
  0
POLYLINE
  8
1
 66
1
 10
0.0000
 20
0.0000
 30
0.0000
 40
0.1524
 41
0.1524
 70
0
  0
VERTEX
  8
1
 10
17.7260
 20
6.6412
 30
0.0000
 42
1.0000
  0
VERTEX
  8
1
 10
17.5736
 20
6.6412
 30
0.0000
  0
SEQEND
  8
0
  0
POLYLINE
  8
1
 66
1
 10
0.0000
 20
0.0000
 30
0.0000
 40
0.1524
 41
0.1524
 70
0
  0
VERTEX
  8
1
 10
17.5736
 20
4.1288
 30
0.0000
 42
1.0000
  0
VERTEX
  8
1
 10
17.7260
 20
4.1288
 30
0.0000
  0
SEQEND
  8
0
  0
POLYLINE
  8
1
 66
1
 10
0.0000
 20
0.0000
 30
0.0000
 40
0.3048
 41
0.3048
 70
0
  0
VERTEX
  8
1
 10
17.6498
 20
6.6412
 30
0.0000
  0
VERTEX
  8
1
 10
16.3630
 20
7.9280
 30
0.0000
  0
SEQEND
  8
0
  0
POLYLINE
  8
1
 66
1
 10
0.0000
 20
0.0000
 30
0.0000
 40
0.1524
 41
0.1524
 70
0
  0
VERTEX
  8
1
 10
16.4169
 20
7.9819
 30
0.0000
 42
1.0000
  0
VERTEX
  8
1
 10
16.3091
 20
7.8741
 30
0.0000
  0
SEQEND
  8
0
  0
POLYLINE
  8
1
 66
1
 10
0.0000
 20
0.0000
 30
0.0000
 40
0.1524
 41
0.1524
 70
0
  0
VERTEX
  8
1
 10
17.5959
 20
6.5873
 30
0.0000
 42
1.0000
  0
VERTEX
  8
1
 10
17.7037
 20
6.6951
 30
0.0000
  0
SEQEND
  8
0
  0
POLYLINE
  8
1
 66
1
 10
0.0000
 20
0.0000
 30
0.0000
 40
0.3048
 41
0.3048
 70
0
  0
VERTEX
  8
1
 10
16.3630
 20
7.9280
 30
0.0000
  0
VERTEX
  8
1
 10
16.3630
 20
11.1500
 30
0.0000
  0
SEQEND
  8
0
  0
POLYLINE
  8
1
 66
1
 10
0.0000
 20
0.0000
 30
0.0000
 40
0.1524
 41
0.1524
 70
0
  0
VERTEX
  8
1
 10
16.4392
 20
11.1500
 30
0.0000
 42
1.0000
  0
VERTEX
  8
1
 10
16.2868
 20
11.1500
 30
0.0000
  0
SEQEND
  8
0
  0
POLYLINE
  8
1
 66
1
 10
0.0000
 20
0.0000
 30
0.0000
 40
0.1524
 41
0.1524
 70
0
  0
VERTEX
  8
1
 10
16.2868
 20
7.9280
 30
0.0000
 42
1.0000
  0
VERTEX
  8
1
 10
16.4392
 20
7.9280
 30
0.0000
  0
SEQEND
  8
0
  0
POLYLINE
  8
1
 66
1
 10
0.0000
 20
0.0000
 30
0.0000
 40
0.3048
 41
0.3048
 70
0
  0
VERTEX
  8
1
 10
16.3630
 20
11.1500
 30
0.0000
  0
VERTEX
  8
1
 10
16.7956
 20
11.1500
 30
0.0000
  0
SEQEND
  8
0
  0
POLYLINE
  8
1
 66
1
 10
0.0000
 20
0.0000
 30
0.0000
 40
0.1524
 41
0.1524
 70
0
  0
VERTEX
  8
1
 10
16.7956
 20
11.0738
 30
0.0000
 42
1.0000
  0
VERTEX
  8
1
 10
16.7956
 20
11.2262
 30
0.0000
  0
SEQEND
  8
0
  0
POLYLINE
  8
1
 66
1
 10
0.0000
 20
0.0000
 30
0.0000
 40
0.1524
 41
0.1524
 70
0
  0
VERTEX
  8
1
 10
16.3630
 20
11.2262
 30
0.0000
 42
1.0000
  0
VERTEX
  8
1
 10
16.3630
 20
11.0738
 30
0.0000
  0
SEQEND
  8
0
  0
POLYLINE
  8
1
 66
1
 10
0.0000
 20
0.0000
 30
0.0000
 40
0.3048
 41
0.3048
 70
0
  0
VERTEX
  8
1
 10
16.7956
 20
11.6500
 30
0.0000
  0
VERTEX
  8
1
 10
15.8850
 20
11.6500
 30
0.0000
  0
SEQEND
  8
0
  0
POLYLINE
  8
1
 66
1
 10
0.0000
 20
0.0000
 30
0.0000
 40
0.1524
 41
0.1524
 70
0
  0
VERTEX
  8
1
 10
15.8850
 20
11.7262
 30
0.0000
 42
1.0000
  0
VERTEX
  8
1
 10
15.8850
 20
11.5738
 30
0.0000
  0
SEQEND
  8
0
  0
POLYLINE
  8
1
 66
1
 10
0.0000
 20
0.0000
 30
0.0000
 40
0.1524
 41
0.1524
 70
0
  0
VERTEX
  8
1
 10
16.7956
 20
11.5738
 30
0.0000
 42
1.0000
  0
VERTEX
  8
1
 10
16.7956
 20
11.7262
 30
0.0000
  0
SEQEND
  8
0
  0
POLYLINE
  8
1
 66
1
 10
0.0000
 20
0.0000
 30
0.0000
 40
0.3048
 41
0.3048
 70
0
  0
VERTEX
  8
1
 10
15.8850
 20
11.6500
 30
0.0000
  0
VERTEX
  8
1
 10
15.6630
 20
11.4280
 30
0.0000
  0
SEQEND
  8
0
  0
POLYLINE
  8
1
 66
1
 10
0.0000
 20
0.0000
 30
0.0000
 40
0.1524
 41
0.1524
 70
0
  0
VERTEX
  8
1
 10
15.6091
 20
11.4819
 30
0.0000
 42
1.0000
  0
VERTEX
  8
1
 10
15.7169
 20
11.3741
 30
0.0000
  0
SEQEND
  8
0
  0
POLYLINE
  8
1
 66
1
 10
0.0000
 20
0.0000
 30
0.0000
 40
0.1524
 41
0.1524
 70
0
  0
VERTEX
  8
1
 10
15.9389
 20
11.5961
 30
0.0000
 42
1.0000
  0
VERTEX
  8
1
 10
15.8311
 20
11.7039
 30
0.0000
  0
SEQEND
  8
0
  0
POLYLINE
  8
1
 66
1
 10
0.0000
 20
0.0000
 30
0.0000
 40
0.3048
 41
0.3048
 70
0
  0
VERTEX
  8
1
 10
15.6630
 20
11.4280
 30
0.0000
  0
VERTEX
  8
1
 10
15.6630
 20
7.1280
 30
0.0000
  0
SEQEND
  8
0
  0
POLYLINE
  8
1
 66
1
 10
0.0000
 20
0.0000
 30
0.0000
 40
0.1524
 41
0.1524
 70
0
  0
VERTEX
  8
1
 10
15.5868
 20
7.1280
 30
0.0000
 42
1.0000
  0
VERTEX
  8
1
 10
15.7392
 20
7.1280
 30
0.0000
  0
SEQEND
  8
0
  0
POLYLINE
  8
1
 66
1
 10
0.0000
 20
0.0000
 30
0.0000
 40
0.1524
 41
0.1524
 70
0
  0
VERTEX
  8
1
 10
15.7392
 20
11.4280
 30
0.0000
 42
1.0000
  0
VERTEX
  8
1
 10
15.5868
 20
11.4280
 30
0.0000
  0
SEQEND
  8
0
  0
POLYLINE
  8
1
 66
1
 10
0.0000
 20
0.0000
 30
0.0000
 40
0.3048
 41
0.3048
 70
0
  0
VERTEX
  8
1
 10
15.6630
 20
7.1280
 30
0.0000
  0
VERTEX
  8
1
 10
16.1630
 20
6.6280
 30
0.0000
  0
SEQEND
  8
0
  0
POLYLINE
  8
1
 66
1
 10
0.0000
 20
0.0000
 30
0.0000
 40
0.1524
 41
0.1524
 70
0
  0
VERTEX
  8
1
 10
16.1091
 20
6.5741
 30
0.0000
 42
1.0000
  0
VERTEX
  8
1
 10
16.2169
 20
6.6819
 30
0.0000
  0
SEQEND
  8
0
  0
POLYLINE
  8
1
 66
1
 10
0.0000
 20
0.0000
 30
0.0000
 40
0.1524
 41
0.1524
 70
0
  0
VERTEX
  8
1
 10
15.7169
 20
7.1819
 30
0.0000
 42
1.0000
  0
VERTEX
  8
1
 10
15.6091
 20
7.0741
 30
0.0000
  0
SEQEND
  8
0
  0
POLYLINE
  8
1
 66
1
 10
0.0000
 20
0.0000
 30
0.0000
 40
0.3048
 41
0.3048
 70
0
  0
VERTEX
  8
1
 10
16.1630
 20
6.6280
 30
0.0000
  0
VERTEX
  8
1
 10
16.1630
 20
4.1362
 30
0.0000
  0
SEQEND
  8
0
  0
POLYLINE
  8
1
 66
1
 10
0.0000
 20
0.0000
 30
0.0000
 40
0.1524
 41
0.1524
 70
0
  0
VERTEX
  8
1
 10
16.0868
 20
4.1362
 30
0.0000
 42
1.0000
  0
VERTEX
  8
1
 10
16.2392
 20
4.1362
 30
0.0000
  0
SEQEND
  8
0
  0
POLYLINE
  8
1
 66
1
 10
0.0000
 20
0.0000
 30
0.0000
 40
0.1524
 41
0.1524
 70
0
  0
VERTEX
  8
1
 10
16.2392
 20
6.6280
 30
0.0000
 42
1.0000
  0
VERTEX
  8
1
 10
16.0868
 20
6.6280
 30
0.0000
  0
SEQEND
  8
0
  0
POLYLINE
  8
1
 66
1
 10
0.0000
 20
0.0000
 30
0.0000
 40
0.3048
 41
0.3048
 70
0
  0
VERTEX
  8
1
 10
16.1630
 20
4.1362
 30
0.0000
  0
VERTEX
  8
1
 10
16.1596
 20
4.1328
 30
0.0000
  0
SEQEND
  8
0
  0
POLYLINE
  8
1
 66
1
 10
0.0000
 20
0.0000
 30
0.0000
 40
0.1524
 41
0.1524
 70
0
  0
VERTEX
  8
1
 10
16.1057
 20
4.1867
 30
0.0000
 42
1.0000
  0
VERTEX
  8
1
 10
16.2135
 20
4.0789
 30
0.0000
  0
SEQEND
  8
0
  0
POLYLINE
  8
1
 66
1
 10
0.0000
 20
0.0000
 30
0.0000
 40
0.1524
 41
0.1524
 70
0
  0
VERTEX
  8
1
 10
16.2169
 20
4.0823
 30
0.0000
 42
1.0000
  0
VERTEX
  8
1
 10
16.1091
 20
4.1901
 30
0.0000
  0
SEQEND
  8
0
  0
ENDSEC
  0
EOF
